<svg width="66" height="82" viewBox="0 0 66 82" fill="none" xmlns="http://www.w3.org/2000/svg">
<path d="M65.414 66.216V65.716H64.914H32.46L49.5741 49.5586C49.5746 49.5581 49.5751 49.5576 49.5756 49.5571C54.7452 44.7619 58.2693 40.456 60.1008 36.6403C61.9261 32.8376 62.838 28.7687 62.838 24.44C62.838 19.646 61.5813 15.4736 59.0519 11.9455C56.6029 8.35078 53.1276 5.60788 48.6499 3.70961C44.243 1.73508 39.0948 0.755981 33.218 0.755981C26.2116 0.755981 19.9757 2.07449 14.5219 4.72507C9.07266 7.29885 4.78237 10.9021 1.66706 15.5371L1.38262 15.9602L1.81129 16.2363L15.0273 24.7483L15.4279 25.0064L15.7049 24.6186C17.5239 22.072 19.7718 20.1892 22.4508 18.9583L22.4508 18.9584L22.4608 18.9536C25.1476 17.6465 28.1701 16.988 31.538 16.988C35.5863 16.988 38.5515 17.8361 40.5167 19.4503L40.5241 19.4565L40.5318 19.4623C42.5523 20.9951 43.582 23.2251 43.582 26.232C43.582 28.3074 43.0461 30.4329 41.9564 32.6133C40.8743 34.7038 38.7575 37.2703 35.5615 40.3176C35.5613 40.3178 35.5612 40.318 35.561 40.3181L5.32272 68.8765L5.16603 69.0245V69.24V81V81.5H5.66603H64.914H65.414V81V66.216Z" stroke="url(#paint0_linear_2568_451)"/>
<defs>
<linearGradient id="paint0_linear_2568_451" x1="35.5747" y1="-29.644" x2="35.5747" y2="93.656" gradientUnits="userSpaceOnUse">
<stop stop-color="#E62E59"/>
<stop offset="1" stop-color="#E62E59" stop-opacity="0"/>
</linearGradient>
</defs>
</svg>
