<svg width="66" height="83" viewBox="0 0 66 83" fill="none" xmlns="http://www.w3.org/2000/svg">
<path d="M37.9332 16.66L22.5394 34.0849L22.4141 34.2268V34.416V46.4V46.9H22.9141H31.2021C36.054 46.9 39.606 47.6992 41.9317 49.226C44.2207 50.7287 45.3741 52.9703 45.3741 56.032C45.3741 59.0787 44.1479 61.4237 41.6754 63.1208C39.1732 64.7635 35.699 65.612 31.2021 65.612C27.1466 65.612 23.165 65.0225 19.256 63.8429C15.4227 62.5892 12.0397 60.8592 9.10209 58.656L8.62593 58.2989L8.35633 58.8295L1.30033 72.7175L1.10628 73.0994L1.45394 73.3497C5.24297 76.0779 9.81578 78.1911 15.1625 79.6973L15.1625 79.6973L15.1705 79.6994C20.5879 81.129 26.0814 81.844 31.6501 81.844C38.7942 81.844 44.8453 80.6788 49.7834 78.3242C54.7793 75.9775 58.5196 72.8585 60.9697 68.9537L60.9719 68.95C63.4097 64.9886 64.6301 60.6793 64.6301 56.032C64.6301 50.0213 62.7623 44.9689 59.011 40.9104C55.4179 36.9516 50.3363 34.386 43.8138 33.18L60.9219 13.6898L61.0461 13.5483V13.36V1.59998V1.09998H60.5461H5.66609H5.16609V1.59998V16.16V16.66H5.66609H37.9332Z" stroke="url(#paint0_linear_2568_452)"/>
<defs>
<linearGradient id="paint0_linear_2568_452" x1="35" y1="-29.3" x2="35" y2="94" gradientUnits="userSpaceOnUse">
<stop stop-color="#E62E59"/>
<stop offset="1" stop-color="#E62E59" stop-opacity="0"/>
</linearGradient>
</defs>
</svg>
