<svg width="32" height="32" viewBox="0 0 32 32" fill="none" xmlns="http://www.w3.org/2000/svg">
<path d="M15.9974 2.66663C12.3273 2.66663 8.98992 4.16438 6.57552 6.57808L3.9974 3.99996V10.6666H10.6641L8.45833 8.4609C10.3894 6.52792 13.0511 5.33329 15.9974 5.33329C21.89 5.33329 26.6641 10.1073 26.6641 16H29.3307C29.3307 8.66059 23.3368 2.66663 15.9974 2.66663ZM15.6146 7.4661V9.36975C15.1626 9.42708 12.6328 9.90496 12.6328 12.9583C12.6328 17.413 17.2448 16.0931 17.2448 19.0651C17.2448 20.5531 16.2819 20.5885 16.0859 20.5885C15.9073 20.5885 14.7344 20.6835 14.7344 18.4062H12.2135C12.2135 22.2622 15.0111 22.5702 15.4271 22.6276V24.401H16.763V22.6276C17.2137 22.5716 19.763 22.1508 19.763 19.0468C19.763 14.7735 15.1524 15.5914 15.151 12.9687C15.151 11.466 15.9776 11.4192 16.1562 11.4192C16.4829 11.4192 17.2604 11.7084 17.2604 13.539H19.7812C19.7812 10.0364 17.3863 9.49015 16.9583 9.40881V7.4661H15.6146ZM2.66406 16C2.66406 23.3393 8.65803 29.3333 15.9974 29.3333C19.6675 29.3333 23.0049 27.8355 25.4193 25.4218L27.9974 28V21.3333H21.3307L23.5365 23.539C21.6054 25.472 18.9437 26.6666 15.9974 26.6666C10.1048 26.6666 5.33073 21.8926 5.33073 16H2.66406Z" fill="#E62E59"/>
</svg>
