<svg width="32" height="32" viewBox="0 0 32 32" fill="none" xmlns="http://www.w3.org/2000/svg">
<path d="M16 4C13.0703 4 10.6667 6.40361 10.6667 9.33333C10.6667 12.2631 13.0703 14.6667 16 14.6667C18.9297 14.6667 21.3333 12.2631 21.3333 9.33333C21.3333 6.40361 18.9297 4 16 4ZM16 6.66667C17.4886 6.66667 18.6667 7.84478 18.6667 9.33333C18.6667 10.8219 17.4886 12 16 12C14.5114 12 13.3333 10.8219 13.3333 9.33333C13.3333 7.84478 14.5114 6.66667 16 6.66667ZM24 17.3333C20.2667 17.3333 17.3333 20.2667 17.3333 24C17.3333 27.7333 20.2667 30.6667 24 30.6667C25.3333 30.6667 26.6677 30.2656 27.7344 29.599L30.1328 32L32 30.1328L29.599 27.7344C30.2656 26.6677 30.6667 25.3333 30.6667 24C30.6667 20.2667 27.7333 17.3333 24 17.3333ZM16 18.6667C11.812 18.6667 4 20.728 4 24.6667V28H15.5781C15.1835 27.1707 14.9081 26.276 14.7734 25.3333H6.66667V24.6667C6.66667 23.5907 10.9268 21.6419 15.0495 21.3672C15.3348 20.3939 15.7745 19.4904 16.3411 18.6771C16.2278 18.6744 16.108 18.6667 16 18.6667ZM24 20C26.2667 20 28 21.7333 28 24C28 26.2667 26.2667 28 24 28C21.7333 28 20 26.2667 20 24C20 21.7333 21.7333 20 24 20Z" fill="white"/>
</svg>
