<svg width="16" height="16" viewBox="0 0 16 16" fill="none" xmlns="http://www.w3.org/2000/svg">
<path d="M1.35573 15.9999C1.70677 15.9971 2.04252 15.8559 2.29003 15.6069L13.335 4.54463L13.335 10.6614C13.335 11.0148 13.4754 11.3538 13.7253 11.6037C13.9752 11.8537 14.3141 11.9941 14.6675 11.9941C15.0209 11.9941 15.3598 11.8537 15.6097 11.6037C15.8596 11.3538 16 11.0148 16 10.6614L16 1.33267C15.998 1.15813 15.9618 0.985678 15.8933 0.825112C15.7581 0.500182 15.4999 0.241929 15.175 0.106717C15.0145 0.0382472 14.842 0.00198756 14.6675 -1.79086e-06L5.34016 -9.75436e-07C4.98676 -9.44541e-07 4.64784 0.140406 4.39795 0.39033C4.14806 0.640256 4.00768 0.979228 4.00768 1.33268C4.00768 1.68612 4.14806 2.02509 4.39795 2.27502C4.64784 2.52494 4.98676 2.66535 5.34016 2.66535L11.456 2.66535L0.395408 13.712C0.27014 13.8359 0.170691 13.9835 0.102819 14.1461C0.0349482 14.3087 8.21071e-07 14.4832 8.36478e-07 14.6594C8.51884e-07 14.8357 0.0349483 15.0101 0.102819 15.1728C0.170691 15.3354 0.27014 15.4829 0.395409 15.6069C0.521061 15.7333 0.670794 15.8332 0.835747 15.9007C1.0007 15.9682 1.17751 16.002 1.35573 15.9999Z" fill="#041F4F"/>
</svg>
