<svg width="12" height="12" viewBox="0 0 12 12" fill="none" xmlns="http://www.w3.org/2000/svg">
<path d="M11.9241 0.617216C11.876 0.501033 11.8051 0.392072 11.7114 0.297198C11.7093 0.295048 11.7071 0.292907 11.705 0.290776C11.5242 0.111056 11.2751 0 11 0H2C1.44772 0 1 0.447715 1 1C1 1.55228 1.44772 2 2 2H8.58579L0.292893 10.2929C-0.0976311 10.6834 -0.0976311 11.3166 0.292893 11.7071C0.683417 12.0976 1.31658 12.0976 1.70711 11.7071L10 3.41421V10C10 10.5523 10.4477 11 11 11C11.5523 11 12 10.5523 12 10V1C12 0.86441 11.973 0.735123 11.9241 0.617216Z" fill="white"/>
</svg>
