<svg width="32" height="32" viewBox="0 0 32 32" fill="none" xmlns="http://www.w3.org/2000/svg">
<path d="M16.0013 4C10.1261 4 5.33464 8.79142 5.33464 14.6667V16C3.86797 16 2.66797 17.2 2.66797 18.6667V21.3333C2.66797 22.8 3.86797 24 5.33464 24H8.0013V17.3333V16V14.6667C8.0013 10.2326 11.5672 6.66667 16.0013 6.66667C20.4354 6.66667 24.0013 10.2326 24.0013 14.6667V16V17.3333V24V25.3333H18.5508C18.4131 24.9438 18.1581 24.6066 17.821 24.3678C17.4839 24.1291 17.0811 24.0006 16.668 24C16.1375 24 15.6288 24.2107 15.2538 24.5858C14.8787 24.9609 14.668 25.4696 14.668 26C14.6686 26.5052 14.8605 26.9914 15.2049 27.3609C15.5493 27.7305 16.0209 27.956 16.5247 27.9922C16.5723 27.9974 16.6201 28 16.668 28H24.0013C25.4587 28 26.668 26.7908 26.668 25.3333V24C28.1346 24 29.3346 22.8 29.3346 21.3333V18.6667C29.3346 17.2 28.1346 16 26.668 16V14.6667C26.668 8.79142 21.8766 4 16.0013 4Z" fill="#E62E59"/>
</svg>
