<svg width="411" height="544" viewBox="0 0 411 544" fill="none" xmlns="http://www.w3.org/2000/svg">
<path fill-rule="evenodd" clip-rule="evenodd" d="M62.5063 33.2393H67.6464C68.4512 33.2393 68.8774 33.0163 69.1831 32.6751C69.547 32.269 69.8775 31.5411 70.1277 30.2652L70.128 30.2637L74.5647 7.30296H82.9484L78.3744 30.9658C77.7644 34.1445 76.5172 36.6373 74.651 38.3371C72.7718 40.0488 70.3789 40.8525 67.6908 40.8525H62.5063V33.2393ZM77.1439 30.7281L81.429 8.56036H75.5981L71.3575 30.5064C70.8274 33.211 69.8111 34.4967 67.6464 34.4967H63.7593V39.5951H67.6908C72.5497 39.5951 75.9955 36.7133 77.1439 30.7281ZM79.6078 28.3012L79.6309 28.1821C81.0483 20.8809 86.3342 15.6381 93.6271 15.6381C95.6429 15.6381 97.4563 16.1913 98.8107 17.1921L99.0454 15.993H106.986L102.17 40.8526H94.2286L94.4171 39.8752C92.8745 40.6972 91.0488 41.2075 89.2094 41.2075C85.87 41.2075 83.0879 39.7682 81.338 37.3533C79.6193 34.9815 78.9723 31.7789 79.6078 28.3062V28.3012ZM80.8608 28.4231C79.6236 34.8957 83.2903 39.9501 89.2094 39.9501C91.2308 39.9501 93.2293 39.2477 94.7372 38.2153C95.3385 37.8037 95.8618 37.3396 96.2775 36.8466L95.7474 39.5952H101.137L105.466 17.2504H100.076L99.5468 19.955C99.3032 19.4536 98.9621 18.9962 98.5357 18.5965C97.4157 17.5466 95.7067 16.8955 93.6271 16.8955C87.0453 16.8955 82.1863 21.5956 80.8608 28.4231ZM98.2652 28.4225C99.06 24.299 97.205 21.595 93.5827 21.595C89.9604 21.595 87.0447 24.2996 86.2493 28.4225C85.4544 32.5454 87.3538 35.25 90.9317 35.25C94.5096 35.25 97.4703 32.5454 98.2652 28.4225ZM97.0551 28.0758C97.3812 26.2787 97.1032 24.9846 96.5481 24.1753C96.0087 23.3888 95.0654 22.8524 93.5827 22.8524C90.6811 22.8524 88.1854 25.0026 87.4795 28.6613C87.1235 30.5078 87.4088 31.8379 87.9807 32.6662C88.5281 33.459 89.4756 33.9926 90.9317 33.9926C93.7933 33.9926 96.3299 31.8375 97.0343 28.1837L97.0551 28.0758ZM87.3067 16.097L85.0582 10.5457L100.247 7.51739L102.495 13.0687L87.3067 16.097ZM101.352 1.2574H68.4502C64.6403 1.2574 61.5513 4.35727 61.5513 8.18161V42.3674C61.5513 46.1917 64.6403 49.2916 68.4502 49.2916H101.352C105.162 49.2916 108.251 46.1917 108.251 42.3674V8.18161C108.251 4.35728 105.162 1.2574 101.352 1.2574ZM100.764 12.1321L99.4759 8.9531L86.7902 11.4824L88.0778 14.6613L100.764 12.1321ZM101.352 0H68.4502C63.948 0 60.2983 3.66303 60.2983 8.18161V42.3674C60.2983 46.8859 63.948 50.549 68.4502 50.549H101.352C105.854 50.549 109.504 46.8859 109.504 42.3674V8.18161C109.504 3.66303 105.854 0 101.352 0Z" fill="url(#paint0_linear_2512_1428)"/>
<path fill-rule="evenodd" clip-rule="evenodd" d="M122.802 33.2393H127.942C128.747 33.2393 129.173 33.0163 129.479 32.6751C129.843 32.269 130.173 31.5411 130.423 30.2652L130.424 30.2637L134.86 7.30296H143.244L138.67 30.9658C138.06 34.1445 136.813 36.6373 134.947 38.3371C133.067 40.0488 130.674 40.8525 127.986 40.8525H122.802V33.2393ZM137.44 30.7281L141.725 8.56036H135.894L131.653 30.5064C131.123 33.211 130.107 34.4967 127.942 34.4967H124.055V39.5951H127.986C132.845 39.5951 136.291 36.7133 137.44 30.7281ZM139.903 28.3012L139.926 28.1821C141.344 20.8809 146.63 15.6381 153.922 15.6381C155.938 15.6381 157.752 16.1913 159.106 17.1921L159.341 15.993H167.281L162.465 40.8526H154.524L154.712 39.8752C153.17 40.6972 151.344 41.2075 149.505 41.2075C146.165 41.2075 143.383 39.7682 141.633 37.3533C139.915 34.9815 139.268 31.7789 139.903 28.3062V28.3012ZM141.156 28.4231C139.919 34.8957 143.586 39.9501 149.505 39.9501C151.526 39.9501 153.525 39.2477 155.033 38.2153C155.634 37.8037 156.157 37.3396 156.573 36.8466L156.043 39.5952H161.432L165.761 17.2504H160.372L159.842 19.955C159.599 19.4536 159.257 18.9962 158.831 18.5965C157.711 17.5466 156.002 16.8955 153.922 16.8955C147.341 16.8955 142.482 21.5956 141.156 28.4231ZM158.561 28.4225C159.355 24.299 157.5 21.595 153.878 21.595C150.256 21.595 147.34 24.2996 146.545 28.4225C145.75 32.5454 147.649 35.25 151.227 35.25C154.805 35.25 157.766 32.5454 158.561 28.4225ZM157.35 28.076C157.677 26.2788 157.399 24.9846 156.843 24.1753C156.304 23.3888 155.361 22.8524 153.878 22.8524C150.976 22.8524 148.481 25.0026 147.775 28.6613M157.35 28.076L157.33 28.1837C156.625 31.8375 154.089 33.9926 151.227 33.9926C149.771 33.9926 148.823 33.459 148.276 32.6662C147.704 31.838 147.419 30.5077 147.775 28.6613M147.602 16.0969L145.354 10.5455L160.542 7.51722L162.791 13.0686L147.602 16.0969ZM161.65 1.2574H128.748C124.939 1.2574 121.85 4.35727 121.85 8.18161V42.3674C121.85 46.1917 124.939 49.2916 128.748 49.2916H161.65C165.46 49.2916 168.549 46.1917 168.549 42.3674V8.18161C168.549 4.35728 165.46 1.2574 161.65 1.2574ZM161.059 12.1319L159.771 8.95294L147.086 11.4822L148.373 14.6612L161.059 12.1319ZM161.65 0H128.748C124.246 0 120.597 3.66303 120.597 8.18161V42.3674C120.597 46.8859 124.246 50.549 128.748 50.549H161.65C166.152 50.549 169.802 46.8859 169.802 42.3674V8.18161C169.802 3.66303 166.152 0 161.65 0Z" fill="url(#paint1_linear_2512_1428)"/>
<path fill-rule="evenodd" clip-rule="evenodd" d="M243.406 33.2393H248.546C249.351 33.2393 249.777 33.0162 250.082 32.675C250.446 32.269 250.777 31.5411 251.027 30.2652L251.027 30.2637L255.464 7.30289H263.848L259.274 30.9658C258.664 34.1445 257.417 36.6372 255.55 38.337C253.671 40.0487 251.278 40.8524 248.59 40.8524H243.406V33.2393ZM258.043 30.728L262.328 8.5603H256.497L252.257 30.5063C251.727 33.2109 250.71 34.4967 248.546 34.4967H244.659V39.595H248.59C253.449 39.595 256.895 36.7133 258.043 30.728ZM260.507 28.3012L260.53 28.1821C261.947 20.8809 267.233 15.6381 274.526 15.6381C276.542 15.6381 278.355 16.1913 279.71 17.1921L279.945 15.993H287.885L283.069 40.8526H275.128L275.316 39.8752C273.774 40.6972 271.948 41.2075 270.108 41.2075C266.769 41.2075 263.987 39.7682 262.237 37.3533C260.518 34.9815 259.871 31.7789 260.507 28.3062V28.3012ZM261.76 28.4231C260.523 34.8957 264.189 39.9501 270.108 39.9501C272.13 39.9501 274.128 39.2477 275.636 38.2153C276.238 37.8037 276.761 37.3396 277.177 36.8466L276.646 39.5952H282.036L286.365 17.2504H280.975L280.446 19.955C280.202 19.4536 279.861 18.9962 279.435 18.5965C278.315 17.5466 276.606 16.8955 274.526 16.8955C267.944 16.8955 263.085 21.5956 261.76 28.4231ZM279.164 28.4225C279.959 24.299 278.104 21.595 274.482 21.595C270.859 21.595 267.944 24.2996 267.148 28.4225C266.354 32.5454 268.253 35.25 271.831 35.25C275.409 35.25 278.369 32.5454 279.164 28.4225ZM277.954 28.076C278.28 26.2788 278.002 24.9846 277.447 24.1753C276.908 23.3888 275.965 22.8524 274.482 22.8524C271.58 22.8524 269.085 25.0026 268.379 28.6613M277.954 28.076L277.933 28.1837C277.229 31.8375 274.692 33.9926 271.831 33.9926C270.375 33.9926 269.427 33.459 268.88 32.6662C268.308 31.838 268.023 30.5077 268.379 28.6613M268.206 16.097L265.957 10.5457L281.146 7.51739L283.395 13.0687L268.206 16.097ZM282.251 1.2574H249.35C245.54 1.2574 242.451 4.35727 242.451 8.18161V42.3674C242.451 46.1917 245.54 49.2916 249.35 49.2916H282.251C286.061 49.2916 289.15 46.1917 289.15 42.3674V8.18161C289.15 4.35728 286.061 1.2574 282.251 1.2574ZM281.663 12.1321L280.375 8.9531L267.689 11.4824L268.977 14.6613L281.663 12.1321ZM282.251 0H249.35C244.848 0 241.198 3.66303 241.198 8.18161V42.3674C241.198 46.8859 244.848 50.549 249.35 50.549H282.251C286.754 50.549 290.403 46.8859 290.403 42.3674V8.18161C290.403 3.66303 286.754 0 282.251 0Z" fill="url(#paint2_linear_2512_1428)"/>
<path fill-rule="evenodd" clip-rule="evenodd" d="M62.5063 94.9207H67.6464C68.4512 94.9207 68.8774 94.6977 69.1831 94.3565C69.547 93.9504 69.8775 93.2225 70.1277 91.9466L70.128 91.9451L74.5647 68.9843H82.9484L78.3744 92.6472C77.7644 95.8259 76.5172 98.3187 74.651 100.018C72.7718 101.73 70.3789 102.534 67.6908 102.534H62.5063V94.9207ZM77.1439 92.4095L81.429 70.2417H75.5981L71.3575 92.1878C70.8274 94.8924 69.8111 96.1781 67.6464 96.1781H63.7593V101.276H67.6908C72.5497 101.276 75.9955 98.3947 77.1439 92.4095ZM79.6078 89.9825L79.6309 89.8634C81.0483 82.5622 86.3342 77.3194 93.6271 77.3194C95.6428 77.3194 97.4563 77.8726 98.8107 78.8734L99.0454 77.6743H106.986L102.17 102.534H94.2286L94.4171 101.556C92.8745 102.379 91.0488 102.889 89.2094 102.889C85.87 102.889 83.0879 101.449 81.338 99.0346C79.6193 96.6628 78.9723 93.4602 79.6078 89.9875V89.9825ZM80.8608 90.1044C79.6236 96.577 83.2903 101.631 89.2094 101.631C91.2308 101.631 93.2293 100.929 94.7372 99.8966C95.3385 99.485 95.8618 99.0209 96.2775 98.5279L95.7474 101.277H101.137L105.466 78.9317H100.076L99.5468 81.6363C99.3032 81.1349 98.9621 80.6775 98.5357 80.2778C97.4157 79.2279 95.7067 78.5768 93.6271 78.5768C87.0453 78.5768 82.1863 83.2769 80.8608 90.1044ZM98.2652 90.1038C99.06 85.9803 97.205 83.2763 93.5827 83.2763C89.9604 83.2763 87.0447 85.9809 86.2493 90.1038C85.4544 94.2267 87.3538 96.9313 90.9317 96.9313C94.5096 96.9313 97.4703 94.2267 98.2652 90.1038ZM97.0551 89.7571C97.3812 87.96 97.1032 86.6659 96.5481 85.8566C96.0087 85.0701 95.0654 84.5337 93.5827 84.5337C90.6811 84.5337 88.1854 86.6839 87.4795 90.3426C87.1235 92.1891 87.4088 93.5192 87.9807 94.3475C88.5281 95.1403 89.4756 95.6739 90.9317 95.6739C93.7933 95.6739 96.3299 93.5188 97.0343 89.865L97.0551 89.7571ZM87.3067 77.7783L85.0582 72.227L100.247 69.1987L102.495 74.75L87.3067 77.7783ZM101.352 62.9388H68.4502C64.6403 62.9388 61.5513 66.0387 61.5513 69.863V104.049C61.5513 107.873 64.6403 110.973 68.4502 110.973H101.352C105.162 110.973 108.251 107.873 108.251 104.049V69.863C108.251 66.0387 105.162 62.9388 101.352 62.9388ZM100.764 73.8134L99.4759 70.6344L86.7902 73.1637L88.0778 76.3426L100.764 73.8134ZM101.352 61.6814H68.4502C63.948 61.6814 60.2983 65.3444 60.2983 69.863V104.049C60.2983 108.567 63.948 112.23 68.4502 112.23H101.352C105.854 112.23 109.504 108.567 109.504 104.049V69.863C109.504 65.3444 105.854 61.6814 101.352 61.6814Z" fill="url(#paint3_linear_2512_1428)"/>
<path fill-rule="evenodd" clip-rule="evenodd" d="M183.1 94.9207H188.24C189.045 94.9207 189.471 94.6977 189.777 94.3565C190.141 93.9504 190.471 93.2225 190.722 91.9466L190.722 91.9451L195.159 68.9843H203.542L198.968 92.6472C198.358 95.8259 197.111 98.3187 195.245 100.018C193.366 101.73 190.973 102.534 188.285 102.534H183.1V94.9207ZM197.738 92.4095L202.023 70.2417H196.192L191.951 92.1878C191.421 94.8924 190.405 96.1781 188.24 96.1781H184.353V101.276H188.285C193.144 101.276 196.589 98.3947 197.738 92.4095ZM200.201 89.9825L200.224 89.8634C201.642 82.5622 206.928 77.3194 214.221 77.3194C216.236 77.3194 218.05 77.8726 219.404 78.8734L219.639 77.6743H227.579L222.763 102.534H214.822L215.011 101.556C213.468 102.379 211.642 102.889 209.803 102.889C206.463 102.889 203.681 101.449 201.931 99.0346C200.213 96.6628 199.566 93.4602 200.201 89.9875V89.9825ZM201.454 90.1044C200.217 96.577 203.884 101.631 209.803 101.631C211.824 101.631 213.823 100.929 215.331 99.8966C215.932 99.485 216.455 99.0209 216.871 98.5279L216.341 101.277H221.73L226.059 78.9317H220.67L220.14 81.6363C219.897 81.1349 219.556 80.6775 219.129 80.2778C218.009 79.2279 216.3 78.5768 214.221 78.5768C207.639 78.5768 202.78 83.2769 201.454 90.1044ZM218.859 90.1038C219.653 85.9803 217.798 83.2763 214.176 83.2763C210.554 83.2763 207.638 85.9809 206.843 90.1038C206.048 94.2267 207.947 96.9313 211.525 96.9313C215.103 96.9313 218.064 94.2267 218.859 90.1038ZM217.648 89.7571C217.975 87.96 217.697 86.6659 217.142 85.8566C216.602 85.0701 215.659 84.5337 214.176 84.5337C211.275 84.5337 208.779 86.6839 208.073 90.3426C207.717 92.1891 208.002 93.5192 208.574 94.3475C209.121 95.1403 210.069 95.6739 211.525 95.6739C214.387 95.6739 216.923 93.5188 217.628 89.865L217.648 89.7571ZM207.9 77.7783L205.652 72.227L220.84 69.1987L223.089 74.75L207.9 77.7783ZM221.948 62.9388H189.047C185.237 62.9388 182.148 66.0387 182.148 69.863V104.049C182.148 107.873 185.237 110.973 189.047 110.973H221.948C225.758 110.973 228.847 107.873 228.847 104.049V69.863C228.847 66.0387 225.758 62.9388 221.948 62.9388ZM221.357 73.8134L220.069 70.6344L207.384 73.1637L208.671 76.3426L221.357 73.8134ZM221.948 61.6814H189.047C184.545 61.6814 180.895 65.3444 180.895 69.863V104.049C180.895 108.567 184.545 112.23 189.047 112.23H221.948C226.451 112.23 230.1 108.567 230.1 104.049V69.863C230.1 65.3444 226.451 61.6814 221.948 61.6814Z" fill="url(#paint4_linear_2512_1428)"/>
<path fill-rule="evenodd" clip-rule="evenodd" d="M2.20308 156.602H7.34318C8.14804 156.602 8.57421 156.379 8.87995 156.038C9.24379 155.632 9.57431 154.904 9.82452 153.628L9.82481 153.626L14.2615 130.666H22.6453L18.0712 154.329C17.4612 157.507 16.214 160 14.3478 161.7C12.4686 163.411 10.0757 164.215 7.3876 164.215H2.20308V156.602ZM16.8407 154.091L21.1258 131.923H15.2949L11.0543 153.869C10.5242 156.574 9.50791 157.859 7.34318 157.859H3.45614V162.958H7.3876C12.2466 162.958 15.6923 160.076 16.8407 154.091ZM19.3043 151.664L19.3274 151.545C20.7449 144.244 26.0308 139.001 33.3237 139.001C35.3394 139.001 37.1529 139.554 38.5072 140.555L38.742 139.356H46.6826L41.8665 164.215H33.9252L34.1137 163.238C32.571 164.06 30.7454 164.57 28.906 164.57C25.5666 164.57 22.7844 163.131 21.0346 160.716C19.3159 158.344 18.6689 155.142 19.3043 151.669V151.664ZM20.5574 151.786C19.3201 158.259 22.9869 163.313 28.906 163.313C30.9274 163.313 32.9258 162.61 34.4338 161.578C35.0351 161.166 35.5584 160.702 35.9741 160.209L35.444 162.958H40.8336L45.1625 140.613H39.7728L39.2434 143.318C38.9997 142.816 38.6587 142.359 38.2323 141.959C37.1123 140.909 35.4033 140.258 33.3237 140.258C26.7418 140.258 21.8829 144.958 20.5574 151.786ZM37.9617 151.785C38.7565 147.662 36.9015 144.958 33.2792 144.958C29.6569 144.958 26.7412 147.662 25.9458 151.785C25.151 155.908 27.0504 158.613 30.6283 158.613C34.2061 158.613 37.1669 155.908 37.9617 151.785ZM36.7516 151.439C37.0778 149.642 36.7998 148.347 36.2447 147.538C35.7052 146.752 34.762 146.215 33.2792 146.215C30.3777 146.215 27.882 148.365 27.1761 152.024C26.8201 153.871 27.1053 155.201 27.6773 156.029C28.2246 156.822 29.1721 157.355 30.6283 157.355C33.4898 157.355 36.0265 155.2 36.7309 151.546L36.7516 151.439ZM27.0033 139.46L24.7548 133.908L39.9436 130.88L42.1921 136.432L27.0033 139.46ZM41.0535 124.62H8.15194C4.34199 124.62 1.25305 127.72 1.25305 131.544V165.73C1.25305 169.554 4.34199 172.654 8.15194 172.654H41.0535C44.8634 172.654 47.9524 169.554 47.9524 165.73V131.544C47.9524 127.72 44.8634 124.62 41.0535 124.62ZM40.4601 135.495L39.1725 132.316L26.4868 134.845L27.7743 138.024L40.4601 135.495ZM41.0535 123.363H8.15194C3.64974 123.363 0 127.026 0 131.544V165.73C0 170.249 3.64974 173.912 8.15194 173.912H41.0535C45.5557 173.912 49.2054 170.249 49.2054 165.73V131.544C49.2054 127.026 45.5557 123.363 41.0535 123.363Z" fill="url(#paint5_linear_2512_1428)"/>
<path fill-rule="evenodd" clip-rule="evenodd" d="M183.1 156.602H188.24C189.045 156.602 189.471 156.379 189.777 156.038C190.141 155.632 190.471 154.904 190.722 153.628L190.722 153.626L195.159 130.666H203.542L198.968 154.329C198.358 157.507 197.111 160 195.245 161.7C193.366 163.412 190.973 164.215 188.285 164.215H183.1V156.602ZM197.738 154.091L202.023 131.923H196.192L191.951 153.869C191.421 156.574 190.405 157.859 188.24 157.859H184.353V162.958H188.285C193.144 162.958 196.589 160.076 197.738 154.091ZM200.201 151.664L200.224 151.545C201.642 144.244 206.928 139.001 214.221 139.001C216.236 139.001 218.05 139.554 219.404 140.555L219.639 139.356H227.579L222.763 164.215H214.822L215.011 163.238C213.468 164.06 211.642 164.57 209.803 164.57C206.463 164.57 203.681 163.131 201.931 160.716C200.213 158.344 199.566 155.142 200.201 151.669V151.664ZM201.454 151.786C200.217 158.259 203.884 163.313 209.803 163.313C211.824 163.313 213.823 162.61 215.331 161.578C215.932 161.166 216.455 160.702 216.871 160.209L216.341 162.958H221.73L226.059 140.613H220.67L220.14 143.318C219.897 142.816 219.556 142.359 219.129 141.959C218.009 140.909 216.3 140.258 214.221 140.258C207.639 140.258 202.78 144.958 201.454 151.786ZM218.859 151.785C219.653 147.662 217.798 144.958 214.176 144.958C210.554 144.958 207.638 147.662 206.843 151.785C206.048 155.908 207.947 158.613 211.525 158.613C215.103 158.613 218.064 155.908 218.859 151.785ZM217.648 151.439C217.975 149.642 217.697 148.347 217.142 147.538C216.602 146.752 215.659 146.215 214.176 146.215C211.275 146.215 208.779 148.365 208.073 152.024C207.717 153.871 208.002 155.201 208.574 156.029C209.121 156.822 210.069 157.355 211.525 157.355C214.387 157.355 216.923 155.2 217.628 151.546L217.648 151.439ZM207.9 139.46L205.652 133.908L220.84 130.88L223.089 136.432L207.9 139.46ZM221.948 124.62H189.047C185.237 124.62 182.148 127.72 182.148 131.544V165.73C182.148 169.554 185.237 172.654 189.047 172.654H221.948C225.758 172.654 228.847 169.554 228.847 165.73V131.544C228.847 127.72 225.758 124.62 221.948 124.62ZM221.357 135.495L220.069 132.316L207.384 134.845L208.671 138.024L221.357 135.495ZM221.948 123.363H189.047C184.545 123.363 180.895 127.026 180.895 131.544V165.73C180.895 170.249 184.545 173.912 189.047 173.912H221.948C226.451 173.912 230.1 170.249 230.1 165.73V131.544C230.1 127.026 226.451 123.363 221.948 123.363Z" fill="url(#paint6_linear_2512_1428)"/>
<path fill-rule="evenodd" clip-rule="evenodd" d="M2.20308 218.284H7.34318C8.14804 218.284 8.57421 218.061 8.87995 217.719C9.24379 217.313 9.57431 216.585 9.82452 215.31L9.82481 215.308L14.2615 192.347H22.6453L18.0712 216.01C17.4612 219.189 16.214 221.682 14.3478 223.381C12.4686 225.093 10.0757 225.897 7.3876 225.897H2.20308V218.284ZM16.8407 215.772L21.1258 193.605H15.2949L11.0543 215.551C10.5242 218.255 9.50791 219.541 7.34318 219.541H3.45614V224.639H7.3876C12.2466 224.639 15.6923 221.758 16.8407 215.772ZM19.3043 213.346L19.3274 213.226C20.7449 205.925 26.0308 200.682 33.3237 200.682C35.3394 200.682 37.1529 201.236 38.5072 202.236L38.742 201.037H46.6826L41.8665 225.897H33.9252L34.1137 224.92C32.571 225.742 30.7454 226.252 28.906 226.252C25.5666 226.252 22.7844 224.813 21.0346 222.398C19.3159 220.026 18.6689 216.823 19.3043 213.351V213.346ZM20.5574 213.468C19.3201 219.94 22.9869 224.995 28.906 224.995C30.9274 224.995 32.9258 224.292 34.4338 223.26C35.0351 222.848 35.5584 222.384 35.9741 221.891L35.444 224.64H40.8336L45.1625 202.295H39.7728L39.2434 204.999C38.9997 204.498 38.6587 204.041 38.2323 203.641C37.1123 202.591 35.4033 201.94 33.3237 201.94C26.7418 201.94 21.8829 206.64 20.5574 213.468ZM37.9617 213.467C38.7565 209.343 36.9015 206.639 33.2792 206.639C29.6569 206.639 26.7412 209.344 25.9458 213.467C25.151 217.59 27.0504 220.294 30.6283 220.294C34.2061 220.294 37.1669 217.59 37.9617 213.467ZM36.7517 213.12C37.0777 211.323 36.7998 210.029 36.2447 209.22C35.7052 208.433 34.762 207.897 33.2792 207.897C30.3777 207.897 27.882 210.047 27.1761 213.706C26.8201 215.552 27.1053 216.882 27.6773 217.711C28.2246 218.503 29.1721 219.037 30.6283 219.037C33.4898 219.037 36.0265 216.882 36.7309 213.228L36.7517 213.12ZM27.0033 201.141L24.7548 195.59L39.9436 192.562L42.1921 198.113L27.0033 201.141ZM41.0535 186.302H8.15194C4.34199 186.302 1.25305 189.401 1.25305 193.226V227.411C1.25305 231.236 4.34199 234.336 8.15194 234.336H41.0535C44.8634 234.336 47.9524 231.236 47.9524 227.411V193.226C47.9524 189.401 44.8634 186.302 41.0535 186.302ZM40.4601 197.176L39.1725 193.998L26.4868 196.527L27.7743 199.706L40.4601 197.176ZM41.0535 185.044H8.15194C3.64974 185.044 0 188.707 0 193.226V227.411C0 231.93 3.64974 235.593 8.15194 235.593H41.0535C45.5557 235.593 49.2054 231.93 49.2054 227.411V193.226C49.2054 188.707 45.5557 185.044 41.0535 185.044Z" fill="url(#paint7_linear_2512_1428)"/>
<path fill-rule="evenodd" clip-rule="evenodd" d="M183.1 218.284H188.24C189.045 218.284 189.471 218.061 189.777 217.719C190.141 217.313 190.471 216.585 190.722 215.31L190.722 215.308L195.159 192.347H203.542L198.968 216.01C198.358 219.189 197.111 221.682 195.245 223.381C193.366 225.093 190.973 225.897 188.285 225.897H183.1V218.284ZM197.738 215.772L202.023 193.605H196.192L191.951 215.551C191.421 218.255 190.405 219.541 188.24 219.541H184.353V224.639H188.285C193.144 224.639 196.589 221.758 197.738 215.772ZM200.201 213.346L200.224 213.226C201.642 205.925 206.928 200.682 214.221 200.682C216.236 200.682 218.05 201.236 219.404 202.236L219.639 201.037H227.579L222.763 225.897H214.822L215.011 224.92C213.468 225.742 211.642 226.252 209.803 226.252C206.463 226.252 203.681 224.813 201.931 222.398C200.213 220.026 199.566 216.823 200.201 213.351V213.346ZM201.454 213.468C200.217 219.94 203.884 224.995 209.803 224.995C211.824 224.995 213.823 224.292 215.331 223.26C215.932 222.848 216.455 222.384 216.871 221.891L216.341 224.64H221.73L226.059 202.295H220.67L220.14 204.999C219.897 204.498 219.556 204.041 219.129 203.641C218.009 202.591 216.3 201.94 214.221 201.94C207.639 201.94 202.78 206.64 201.454 213.468ZM218.859 213.467C219.653 209.343 217.798 206.639 214.176 206.639C210.554 206.639 207.638 209.344 206.843 213.467C206.048 217.59 207.947 220.294 211.525 220.294C215.103 220.294 218.064 217.59 218.859 213.467ZM217.648 213.12C217.975 211.323 217.697 210.029 217.142 209.22C216.602 208.433 215.659 207.897 214.176 207.897C211.275 207.897 208.779 210.047 208.073 213.706C207.717 215.552 208.002 216.882 208.574 217.711C209.122 218.503 210.069 219.037 211.525 219.037C214.387 219.037 216.923 216.882 217.628 213.228L217.648 213.12ZM207.9 201.141L205.652 195.59L220.84 192.562L223.089 198.113L207.9 201.141ZM221.948 186.302H189.047C185.237 186.302 182.148 189.401 182.148 193.226V227.411C182.148 231.236 185.237 234.336 189.047 234.336H221.948C225.758 234.336 228.847 231.236 228.847 227.411V193.226C228.847 189.401 225.758 186.302 221.948 186.302ZM221.357 197.176L220.069 193.998L207.384 196.527L208.671 199.706L221.357 197.176ZM221.948 185.044H189.047C184.545 185.044 180.895 188.707 180.895 193.226V227.411C180.895 231.93 184.545 235.593 189.047 235.593H221.948C226.451 235.593 230.1 231.93 230.1 227.411V193.226C230.1 188.707 226.451 185.044 221.948 185.044Z" fill="url(#paint8_linear_2512_1428)"/>
<path fill-rule="evenodd" clip-rule="evenodd" d="M363.999 218.284H369.14C369.944 218.284 370.371 218.061 370.676 217.719C371.04 217.313 371.371 216.585 371.621 215.31L371.621 215.308L376.058 192.347H384.442L379.868 216.01C379.258 219.189 378.01 221.682 376.144 223.381C374.265 225.093 371.872 225.897 369.184 225.897H363.999V218.284ZM378.637 215.772L382.922 193.605H377.091L372.851 215.551C372.321 218.255 371.304 219.541 369.14 219.541H365.253V224.639H369.184C374.043 224.639 377.489 221.758 378.637 215.772ZM381.101 213.346L381.124 213.226C382.541 205.925 387.827 200.682 395.12 200.682C397.136 200.682 398.949 201.236 400.304 202.236L400.538 201.037H408.479L403.663 225.897H395.722L395.91 224.92C394.367 225.742 392.542 226.252 390.702 226.252C387.363 226.252 384.581 224.813 382.831 222.398C381.112 220.026 380.465 216.823 381.101 213.351V213.346ZM382.354 213.468C381.117 219.94 384.783 224.995 390.702 224.995C392.724 224.995 394.722 224.292 396.23 223.26C396.832 222.848 397.355 222.384 397.77 221.891L397.24 224.64H402.63L406.959 202.295H401.569L401.04 204.999C400.796 204.498 400.455 204.041 400.029 203.641C398.909 202.591 397.2 201.94 395.12 201.94C388.538 201.94 383.679 206.64 382.354 213.468ZM399.758 213.467C400.553 209.343 398.698 206.639 395.076 206.639C391.453 206.639 388.538 209.344 387.742 213.467C386.947 217.59 388.847 220.294 392.425 220.294C396.003 220.294 398.963 217.59 399.758 213.467ZM398.548 213.12C398.874 211.323 398.596 210.029 398.041 209.22C397.502 208.433 396.558 207.897 395.076 207.897C392.174 207.897 389.678 210.047 388.972 213.706M398.548 213.12L398.527 213.228C397.823 216.882 395.286 219.037 392.425 219.037C390.969 219.037 390.021 218.503 389.474 217.711C388.902 216.882 388.617 215.552 388.972 213.706M388.8 201.141L386.551 195.59L401.74 192.562L403.988 198.113L388.8 201.141ZM402.848 186.302H369.946C366.137 186.302 363.048 189.401 363.048 193.226V227.411C363.048 231.236 366.137 234.336 369.946 234.336H402.848C406.658 234.336 409.747 231.236 409.747 227.411V193.226C409.747 189.401 406.658 186.302 402.848 186.302ZM402.257 197.176L400.969 193.998L388.283 196.527L389.571 199.706L402.257 197.176ZM402.848 185.044H369.946C365.444 185.044 361.795 188.707 361.795 193.226V227.411C361.795 231.93 365.444 235.593 369.946 235.593H402.848C407.35 235.593 411 231.93 411 227.411V193.226C411 188.707 407.35 185.044 402.848 185.044Z" fill="url(#paint9_linear_2512_1428)"/>
<path fill-rule="evenodd" clip-rule="evenodd" d="M62.5063 279.965H67.6464C68.4512 279.965 68.8774 279.742 69.1831 279.401C69.547 278.995 69.8775 278.267 70.1277 276.991L70.128 276.989L74.5647 254.028H82.9484L78.3744 277.691C77.7644 280.87 76.5172 283.363 74.651 285.063C72.7718 286.774 70.3789 287.578 67.6908 287.578H62.5063V279.965ZM77.1439 277.454L81.429 255.286H75.5981L71.3575 277.232C70.8274 279.937 69.8111 281.222 67.6464 281.222H63.7593V286.321H67.6908C72.5497 286.321 75.9955 283.439 77.1439 277.454ZM79.6078 275.027L79.6309 274.908C81.0483 267.606 86.3342 262.364 93.6271 262.364C95.6428 262.364 97.4563 262.917 98.8107 263.918L99.0454 262.719H106.986L102.17 287.578H94.2286L94.4171 286.601C92.8745 287.423 91.0488 287.933 89.2094 287.933C85.87 287.933 83.0879 286.494 81.338 284.079C79.6193 281.707 78.9723 278.504 79.6078 275.032V275.027ZM80.8608 275.149C79.6236 281.621 83.2903 286.676 89.2094 286.676C91.2308 286.676 93.2293 285.973 94.7372 284.941C95.3385 284.529 95.8618 284.065 96.2775 283.572L95.7474 286.321H101.137L105.466 263.976H100.076L99.5468 266.681C99.3032 266.179 98.9621 265.722 98.5357 265.322C97.4157 264.272 95.7067 263.621 93.6271 263.621C87.0453 263.621 82.1863 268.321 80.8608 275.149ZM98.2652 275.148C99.06 271.025 97.205 268.321 93.5827 268.321C89.9604 268.321 87.0447 271.025 86.2493 275.148C85.4544 279.271 87.3538 281.976 90.9317 281.976C94.5096 281.976 97.4703 279.271 98.2652 275.148ZM97.0551 274.801C97.3812 273.004 97.1032 271.71 96.5481 270.901C96.0087 270.114 95.0654 269.578 93.5827 269.578C90.6811 269.578 88.1854 271.728 87.4795 275.387C87.1235 277.233 87.4088 278.563 87.9807 279.392C88.5281 280.185 89.4756 280.718 90.9317 280.718C93.7933 280.718 96.3299 278.563 97.0343 274.909L97.0551 274.801ZM87.3067 262.823L85.0582 257.271L100.247 254.243L102.495 259.794L87.3067 262.823ZM101.352 247.983H68.4502C64.6403 247.983 61.5513 251.083 61.5513 254.907V289.093C61.5513 292.917 64.6403 296.017 68.4502 296.017H101.352C105.162 296.017 108.251 292.917 108.251 289.093V254.907C108.251 251.083 105.162 247.983 101.352 247.983ZM100.764 258.858L99.4759 255.679L86.7902 258.208L88.0778 261.387L100.764 258.858ZM101.352 246.726H68.4502C63.948 246.726 60.2983 250.389 60.2983 254.907V289.093C60.2983 293.611 63.948 297.274 68.4502 297.274H101.352C105.854 297.274 109.504 293.611 109.504 289.093V254.907C109.504 250.389 105.854 246.726 101.352 246.726Z" fill="url(#paint10_linear_2512_1428)"/>
<path fill-rule="evenodd" clip-rule="evenodd" d="M122.802 279.965H127.942C128.747 279.965 129.173 279.742 129.479 279.401C129.843 278.995 130.173 278.267 130.423 276.991L130.424 276.989L134.86 254.028H143.244L138.67 277.691C138.06 280.87 136.813 283.363 134.947 285.063C133.067 286.774 130.674 287.578 127.986 287.578H122.802V279.965ZM137.44 277.454L141.725 255.286H135.894L131.653 277.232C131.123 279.937 130.107 281.222 127.942 281.222H124.055V286.321H127.986C132.845 286.321 136.291 283.439 137.44 277.454ZM139.903 275.027L139.926 274.908C141.344 267.606 146.63 262.364 153.922 262.364C155.938 262.364 157.752 262.917 159.106 263.918L159.341 262.719H167.281L162.465 287.578H154.524L154.712 286.601C153.17 287.423 151.344 287.933 149.505 287.933C146.165 287.933 143.383 286.494 141.633 284.079C139.915 281.707 139.268 278.504 139.903 275.032V275.027ZM141.156 275.149C139.919 281.621 143.586 286.676 149.505 286.676C151.526 286.676 153.525 285.973 155.033 284.941C155.634 284.529 156.157 284.065 156.573 283.572L156.043 286.321H161.432L165.761 263.976H160.372L159.842 266.681C159.599 266.179 159.257 265.722 158.831 265.322C157.711 264.272 156.002 263.621 153.922 263.621C147.341 263.621 142.482 268.321 141.156 275.149ZM158.561 275.148C159.355 271.025 157.5 268.321 153.878 268.321C150.256 268.321 147.34 271.025 146.545 275.148C145.75 279.271 147.649 281.976 151.227 281.976C154.805 281.976 157.766 279.271 158.561 275.148ZM157.35 274.802C157.677 273.004 157.399 271.71 156.843 270.901C156.304 270.114 155.361 269.578 153.878 269.578C150.976 269.578 148.481 271.728 147.775 275.387M157.35 274.802L157.33 274.909C156.625 278.563 154.089 280.718 151.227 280.718C149.771 280.718 148.823 280.185 148.276 279.392C147.704 278.564 147.419 277.233 147.775 275.387M147.602 262.822L145.354 257.271L160.542 254.243L162.791 259.794L147.602 262.822ZM161.65 247.983H128.748C124.939 247.983 121.85 251.083 121.85 254.907V289.093C121.85 292.917 124.939 296.017 128.748 296.017H161.65C165.46 296.017 168.549 292.917 168.549 289.093V254.907C168.549 251.083 165.46 247.983 161.65 247.983ZM161.059 258.857L159.771 255.678L147.086 258.208L148.373 261.387L161.059 258.857ZM161.65 246.726H128.748C124.246 246.726 120.597 250.389 120.597 254.907V289.093C120.597 293.611 124.246 297.274 128.748 297.274H161.65C166.152 297.274 169.802 293.611 169.802 289.093V254.907C169.802 250.389 166.152 246.726 161.65 246.726Z" fill="url(#paint11_linear_2512_1428)"/>
<path fill-rule="evenodd" clip-rule="evenodd" d="M243.406 279.965H248.546C249.351 279.965 249.777 279.742 250.082 279.401C250.446 278.995 250.777 278.267 251.027 276.991L251.027 276.989L255.464 254.028H263.848L259.274 277.691C258.664 280.87 257.417 283.363 255.55 285.063C253.671 286.774 251.278 287.578 248.59 287.578H243.406V279.965ZM258.043 277.454L262.328 255.286H256.497L252.257 277.232C251.727 279.936 250.71 281.222 248.546 281.222H244.659V286.321H248.59C253.449 286.321 256.895 283.439 258.043 277.454ZM260.507 275.027L260.53 274.908C261.947 267.606 267.233 262.364 274.526 262.364C276.542 262.364 278.355 262.917 279.71 263.918L279.945 262.719H287.885L283.069 287.578H275.128L275.316 286.601C273.774 287.423 271.948 287.933 270.108 287.933C266.769 287.933 263.987 286.494 262.237 284.079C260.518 281.707 259.871 278.504 260.507 275.032V275.027ZM261.76 275.149C260.523 281.621 264.189 286.676 270.108 286.676C272.13 286.676 274.128 285.973 275.636 284.941C276.238 284.529 276.761 284.065 277.177 283.572L276.646 286.321H282.036L286.365 263.976H280.975L280.446 266.681C280.202 266.179 279.861 265.722 279.435 265.322C278.315 264.272 276.606 263.621 274.526 263.621C267.944 263.621 263.085 268.321 261.76 275.149ZM279.164 275.148C279.959 271.025 278.104 268.321 274.482 268.321C270.859 268.321 267.944 271.025 267.148 275.148C266.354 279.271 268.253 281.976 271.831 281.976C275.409 281.976 278.369 279.271 279.164 275.148ZM277.954 274.802C278.28 273.004 278.002 271.71 277.447 270.901C276.908 270.114 275.965 269.578 274.482 269.578C271.58 269.578 269.085 271.728 268.379 275.387C268.023 277.233 268.308 278.563 268.88 279.392C269.427 280.185 270.375 280.718 271.831 280.718C274.692 280.718 277.229 278.563 277.933 274.909L277.954 274.802ZM268.206 262.823L265.957 257.271L281.146 254.243L283.395 259.794L268.206 262.823ZM282.251 247.983H249.35C245.54 247.983 242.451 251.083 242.451 254.907V289.093C242.451 292.917 245.54 296.017 249.35 296.017H282.251C286.061 296.017 289.15 292.917 289.15 289.093V254.907C289.15 251.083 286.061 247.983 282.251 247.983ZM281.663 258.858L280.375 255.679L267.689 258.208L268.977 261.387L281.663 258.858ZM282.251 246.726H249.35C244.848 246.726 241.198 250.389 241.198 254.907V289.093C241.198 293.611 244.848 297.274 249.35 297.274H282.251C286.754 297.274 290.403 293.611 290.403 289.093V254.907C290.403 250.389 286.754 246.726 282.251 246.726Z" fill="url(#paint12_linear_2512_1428)"/>
<path fill-rule="evenodd" clip-rule="evenodd" d="M303.704 279.965H308.844C309.649 279.965 310.075 279.742 310.38 279.401C310.744 278.995 311.075 278.267 311.325 276.991L311.325 276.989L315.762 254.028H324.146L319.572 277.691C318.962 280.87 317.715 283.363 315.848 285.063C313.969 286.774 311.576 287.578 308.888 287.578H303.704V279.965ZM318.341 277.454L322.626 255.286H316.796L312.555 277.232C312.025 279.936 311.008 281.222 308.844 281.222H304.957V286.321H308.888C313.747 286.321 317.193 283.439 318.341 277.454ZM320.805 275.027L320.828 274.908C322.245 267.606 327.531 262.364 334.824 262.364C336.84 262.364 338.653 262.917 340.008 263.918L340.243 262.719H348.183L343.367 287.578H335.426L335.614 286.601C334.072 287.423 332.246 287.933 330.407 287.933C327.067 287.933 324.285 286.494 322.535 284.079C320.816 281.707 320.169 278.504 320.805 275.032V275.027ZM322.058 275.149C320.821 281.621 324.487 286.676 330.407 286.676C332.428 286.676 334.426 285.973 335.934 284.941C336.536 284.529 337.059 284.065 337.475 283.572L336.945 286.321H342.334L346.663 263.976H341.273L340.744 266.681C340.5 266.179 340.159 265.722 339.733 265.322C338.613 264.272 336.904 263.621 334.824 263.621C328.242 263.621 323.383 268.321 322.058 275.149ZM339.462 275.148C340.257 271.025 338.402 268.321 334.78 268.321C331.158 268.321 328.242 271.025 327.446 275.148C326.652 279.271 328.551 281.976 332.129 281.976C335.707 281.976 338.667 279.271 339.462 275.148ZM338.252 274.802C338.578 273.004 338.3 271.71 337.745 270.901C337.206 270.114 336.263 269.578 334.78 269.578C331.878 269.578 329.383 271.728 328.677 275.387C328.321 277.233 328.606 278.563 329.178 279.392C329.725 280.185 330.673 280.718 332.129 280.718C334.99 280.718 337.527 278.563 338.231 274.909L338.252 274.802ZM328.504 262.823L326.255 257.271L341.444 254.243L343.693 259.794L328.504 262.823ZM342.55 247.983H309.648C305.838 247.983 302.749 251.083 302.749 254.907V289.093C302.749 292.917 305.838 296.017 309.648 296.017H342.55C346.36 296.017 349.449 292.917 349.449 289.093V254.907C349.449 251.083 346.36 247.983 342.55 247.983ZM341.961 258.858L340.673 255.679L327.987 258.208L329.275 261.387L341.961 258.858ZM342.55 246.726H309.648C305.146 246.726 301.496 250.389 301.496 254.907V289.093C301.496 293.611 305.146 297.274 309.648 297.274H342.55C347.052 297.274 350.702 293.611 350.702 289.093V254.907C350.702 250.389 347.052 246.726 342.55 246.726Z" fill="url(#paint13_linear_2512_1428)"/>
<path fill-rule="evenodd" clip-rule="evenodd" d="M2.20308 341.646H7.34318C8.14804 341.646 8.57421 341.423 8.87995 341.082C9.24379 340.676 9.57431 339.948 9.82452 338.672L9.82481 338.671L14.2615 315.71H22.6453L18.0712 339.373C17.4612 342.552 16.214 345.044 14.3478 346.744C12.4686 348.456 10.0757 349.26 7.3876 349.26H2.20308V341.646ZM16.8407 339.135L21.1258 316.967H15.2949L11.0543 338.914C10.5242 341.618 9.50791 342.904 7.34318 342.904H3.45614V348.002H7.3876C12.2466 348.002 15.6923 345.12 16.8407 339.135ZM19.3043 336.708L19.3274 336.589C20.7449 329.288 26.0308 324.045 33.3237 324.045C35.3394 324.045 37.1529 324.598 38.5072 325.599L38.742 324.4H46.6826L41.8665 349.26H33.9252L34.1137 348.282C32.571 349.104 30.7454 349.615 28.906 349.615C25.5666 349.615 22.7844 348.175 21.0346 345.761C19.3159 343.389 18.6689 340.186 19.3043 336.713V336.708ZM20.5574 336.83C19.3201 343.303 22.9869 348.357 28.906 348.357C30.9274 348.357 32.9258 347.655 34.4338 346.622C35.0351 346.211 35.5584 345.747 35.9741 345.254L35.444 348.002H40.8336L45.1625 325.658H39.7728L39.2434 328.362C38.9997 327.861 38.6587 327.403 38.2323 327.004C37.1123 325.954 35.4033 325.303 33.3237 325.303C26.7418 325.303 21.8829 330.003 20.5574 336.83ZM37.9617 336.83C38.7565 332.706 36.9015 330.002 33.2792 330.002C29.6569 330.002 26.7412 332.707 25.9458 336.83C25.151 340.953 27.0504 343.657 30.6283 343.657C34.2061 343.657 37.1669 340.953 37.9617 336.83ZM36.7516 336.483C37.0778 334.686 36.7998 333.392 36.2447 332.582C35.7052 331.796 34.762 331.26 33.2792 331.26C30.3777 331.26 27.882 333.41 27.1761 337.069C26.8201 338.915 27.1053 340.245 27.6773 341.073C28.2246 341.866 29.1721 342.4 30.6283 342.4C33.4898 342.4 36.0265 340.245 36.7309 336.591L36.7516 336.483ZM27.0033 324.504L24.7548 318.953L39.9436 315.925L42.1921 321.476L27.0033 324.504ZM41.0535 309.664H8.15194C4.34199 309.664 1.25305 312.764 1.25305 316.589V350.774C1.25305 354.599 4.34199 357.698 8.15194 357.698H41.0535C44.8634 357.698 47.9524 354.599 47.9524 350.774V316.589C47.9524 312.764 44.8634 309.664 41.0535 309.664ZM40.4601 320.539L39.1725 317.36L26.4868 319.89L27.7743 323.068L40.4601 320.539ZM41.0535 308.407H8.15194C3.64974 308.407 0 312.07 0 316.589V350.774C0 355.293 3.64974 358.956 8.15194 358.956H41.0535C45.5557 358.956 49.2054 355.293 49.2054 350.774V316.589C49.2054 312.07 45.5557 308.407 41.0535 308.407Z" fill="url(#paint14_linear_2512_1428)"/>
<path fill-rule="evenodd" clip-rule="evenodd" d="M62.5063 341.646H67.6464C68.4512 341.646 68.8774 341.423 69.1831 341.082C69.547 340.676 69.8775 339.948 70.1277 338.672L70.128 338.671L74.5647 315.71H82.9484L78.3744 339.373C77.7644 342.552 76.5172 345.044 74.651 346.744C72.7718 348.456 70.3789 349.26 67.6908 349.26H62.5063V341.646ZM77.1439 339.135L81.429 316.967H75.5981L71.3575 338.913C70.8274 341.618 69.8111 342.904 67.6464 342.904H63.7593V348.002H67.6908C72.5497 348.002 75.9955 345.12 77.1439 339.135ZM79.6078 336.708L79.6309 336.589C81.0483 329.288 86.3342 324.045 93.6271 324.045C95.6428 324.045 97.4563 324.598 98.8107 325.599L99.0454 324.4H106.986L102.17 349.26H94.2286L94.4171 348.282C92.8745 349.104 91.0488 349.615 89.2094 349.615C85.87 349.615 83.0879 348.175 81.338 345.761C79.6193 343.389 78.9723 340.186 79.6078 336.713V336.708ZM80.8608 336.83C79.6236 343.303 83.2903 348.357 89.2094 348.357C91.2308 348.357 93.2293 347.655 94.7372 346.622C95.3385 346.211 95.8618 345.747 96.2775 345.254L95.7474 348.002H101.137L105.466 325.658H100.076L99.5468 328.362C99.3032 327.861 98.9621 327.403 98.5357 327.004C97.4157 325.954 95.7067 325.303 93.6271 325.303C87.0453 325.303 82.1863 330.003 80.8608 336.83ZM98.2652 336.83C99.06 332.706 97.205 330.002 93.5827 330.002C89.9604 330.002 87.0447 332.707 86.2493 336.83C85.4544 340.953 87.3538 343.657 90.9317 343.657C94.5096 343.657 97.4703 340.953 98.2652 336.83ZM97.0551 336.483C97.3812 334.686 97.1032 333.392 96.5481 332.582C96.0087 331.796 95.0654 331.26 93.5827 331.26C90.6811 331.26 88.1854 333.41 87.4795 337.069C87.1235 338.915 87.4088 340.245 87.9807 341.073C88.5281 341.866 89.4756 342.4 90.9317 342.4C93.7933 342.4 96.3299 340.245 97.0343 336.591L97.0551 336.483ZM87.3067 324.504L85.0582 318.953L100.247 315.925L102.495 321.476L87.3067 324.504ZM101.352 309.664H68.4502C64.6403 309.664 61.5513 312.764 61.5513 316.589V350.774C61.5513 354.599 64.6403 357.698 68.4502 357.698H101.352C105.162 357.698 108.251 354.599 108.251 350.774V316.589C108.251 312.764 105.162 309.664 101.352 309.664ZM100.764 320.539L99.4759 317.36L86.7902 319.89L88.0778 323.068L100.764 320.539ZM101.352 308.407H68.4502C63.948 308.407 60.2983 312.07 60.2983 316.589V350.774C60.2983 355.293 63.948 358.956 68.4502 358.956H101.352C105.854 358.956 109.504 355.293 109.504 350.774V316.589C109.504 312.07 105.854 308.407 101.352 308.407Z" fill="url(#paint15_linear_2512_1428)"/>
<path fill-rule="evenodd" clip-rule="evenodd" d="M2.20308 465.009H7.34318C8.14804 465.009 8.57421 464.786 8.87995 464.445C9.24379 464.039 9.57431 463.311 9.82452 462.035L9.82481 462.033L14.2615 439.072H22.6453L18.0712 462.735C17.4612 465.914 16.214 468.407 14.3478 470.107C12.4686 471.818 10.0757 472.622 7.3876 472.622H2.20308V465.009ZM16.8407 462.498L21.1258 440.33H15.2949L11.0543 462.276C10.5242 464.981 9.50791 466.266 7.34318 466.266H3.45614V471.365H7.3876C12.2466 471.365 15.6923 468.483 16.8407 462.498ZM19.3043 460.071L19.3274 459.952C20.7449 452.651 26.0308 447.408 33.3237 447.408C35.3394 447.408 37.1529 447.961 38.5072 448.962L38.742 447.763H46.6826L41.8665 472.622H33.9252L34.1137 471.645C32.571 472.467 30.7454 472.977 28.906 472.977C25.5666 472.977 22.7844 471.538 21.0346 469.123C19.3159 466.751 18.6689 463.549 19.3043 460.076V460.071ZM20.5574 460.193C19.3201 466.666 22.9869 471.72 28.906 471.72C30.9274 471.72 32.9258 471.017 34.4338 469.985C35.0351 469.573 35.5584 469.109 35.9741 468.616L35.444 471.365H40.8336L45.1625 449.02H39.7728L39.2434 451.725C38.9997 451.223 38.6587 450.766 38.2323 450.366C37.1123 449.316 35.4033 448.665 33.3237 448.665C26.7418 448.665 21.8829 453.365 20.5574 460.193ZM37.9617 460.192C38.7565 456.069 36.9015 453.365 33.2792 453.365C29.6569 453.365 26.7412 456.069 25.9458 460.192C25.151 464.315 27.0504 467.02 30.6283 467.02C34.2061 467.02 37.1669 464.315 37.9617 460.192ZM36.7516 459.846C37.0778 458.049 36.7998 456.754 36.2447 455.945C35.7052 455.159 34.762 454.622 33.2792 454.622C30.3777 454.622 27.882 456.772 27.1761 460.431C26.8201 462.278 27.1053 463.608 27.6773 464.436C28.2246 465.229 29.1721 465.762 30.6283 465.762C33.4898 465.762 36.0265 463.607 36.7309 459.953L36.7516 459.846ZM27.0033 447.867L24.7548 442.315L39.9436 439.287L42.1921 444.838L27.0033 447.867ZM41.0535 433.027H8.15194C4.34199 433.027 1.25305 436.127 1.25305 439.951V474.137C1.25305 477.961 4.34199 481.061 8.15194 481.061H41.0535C44.8634 481.061 47.9524 477.961 47.9524 474.137V439.951C47.9524 436.127 44.8634 433.027 41.0535 433.027ZM40.4601 443.902L39.1725 440.723L26.4868 443.252L27.7743 446.431L40.4601 443.902ZM41.0535 431.77H8.15194C3.64974 431.77 0 435.433 0 439.951V474.137C0 478.656 3.64974 482.319 8.15194 482.319H41.0535C45.5557 482.319 49.2054 478.656 49.2054 474.137V439.951C49.2054 435.433 45.5557 431.77 41.0535 431.77Z" fill="url(#paint16_linear_2512_1428)"/>
<path fill-rule="evenodd" clip-rule="evenodd" d="M62.5063 465.009H67.6464C68.4512 465.009 68.8774 464.786 69.1831 464.445C69.547 464.039 69.8775 463.311 70.1277 462.035L70.128 462.033L74.5647 439.073H82.9484L78.3744 462.735C77.7644 465.914 76.5172 468.407 74.651 470.107C72.7718 471.818 70.3789 472.622 67.6908 472.622H62.5063V465.009ZM77.1439 462.498L81.429 440.33H75.5981L71.3575 462.276C70.8274 464.981 69.8111 466.266 67.6464 466.266H63.7593V471.365H67.6908C72.5497 471.365 75.9955 468.483 77.1439 462.498ZM79.6078 460.071L79.6309 459.952C81.0483 452.651 86.3342 447.408 93.6271 447.408C95.6429 447.408 97.4563 447.961 98.8107 448.962L99.0454 447.763H106.986L102.17 472.622H94.2286L94.4171 471.645C92.8745 472.467 91.0488 472.977 89.2094 472.977C85.87 472.977 83.0879 471.538 81.338 469.123C79.6193 466.751 78.9723 463.549 79.6078 460.076V460.071ZM80.8608 460.193C79.6236 466.666 83.2903 471.72 89.2094 471.72C91.2308 471.72 93.2293 471.017 94.7372 469.985C95.3385 469.573 95.8618 469.109 96.2775 468.616L95.7474 471.365H101.137L105.466 449.02H100.076L99.5468 451.725C99.3032 451.223 98.9621 450.766 98.5357 450.366C97.4157 449.316 95.7067 448.665 93.6271 448.665C87.0453 448.665 82.1863 453.365 80.8608 460.193ZM98.2652 460.192C99.06 456.069 97.205 453.365 93.5827 453.365C89.9604 453.365 87.0447 456.069 86.2493 460.192C85.4544 464.315 87.3538 467.02 90.9317 467.02C94.5096 467.02 97.4703 464.315 98.2652 460.192ZM97.0551 459.846C97.3812 458.048 97.1032 456.754 96.5481 455.945C96.0087 455.159 95.0654 454.622 93.5827 454.622C90.6811 454.622 88.1854 456.772 87.4795 460.431C87.1235 462.278 87.4088 463.608 87.9807 464.436C88.5281 465.229 89.4756 465.762 90.9317 465.762C93.7933 465.762 96.3299 463.607 97.0343 459.953L97.0551 459.846ZM87.3067 447.867L85.0582 442.315L100.247 439.287L102.495 444.838L87.3067 447.867ZM101.352 433.027H68.4502C64.6403 433.027 61.5513 436.127 61.5513 439.951V474.137C61.5513 477.961 64.6403 481.061 68.4502 481.061H101.352C105.162 481.061 108.251 477.961 108.251 474.137V439.951C108.251 436.127 105.162 433.027 101.352 433.027ZM100.764 443.902L99.4759 440.723L86.7902 443.252L88.0778 446.431L100.764 443.902ZM101.352 431.77H68.4502C63.948 431.77 60.2983 435.433 60.2983 439.951V474.137C60.2983 478.656 63.948 482.319 68.4502 482.319H101.352C105.854 482.319 109.504 478.656 109.504 474.137V439.951C109.504 435.433 105.854 431.77 101.352 431.77Z" fill="url(#paint17_linear_2512_1428)"/>
<path fill-rule="evenodd" clip-rule="evenodd" d="M303.704 465.009H308.844C309.649 465.009 310.075 464.786 310.38 464.445C310.744 464.039 311.075 463.311 311.325 462.035L311.325 462.033L315.762 439.072H324.146L319.572 462.735C318.962 465.914 317.715 468.407 315.848 470.107C313.969 471.818 311.576 472.622 308.888 472.622H303.704V465.009ZM318.341 462.498L322.626 440.33H316.796L312.555 462.276C312.025 464.981 311.008 466.266 308.844 466.266H304.957V471.365H308.888C313.747 471.365 317.193 468.483 318.341 462.498ZM320.805 460.071L320.828 459.952C322.245 452.651 327.531 447.408 334.824 447.408C336.84 447.408 338.653 447.961 340.008 448.962L340.243 447.763H348.183L343.367 472.622H335.426L335.614 471.645C334.072 472.467 332.246 472.977 330.407 472.977C327.067 472.977 324.285 471.538 322.535 469.123C320.816 466.751 320.169 463.549 320.805 460.076V460.071ZM322.058 460.193C320.821 466.666 324.487 471.72 330.407 471.72C332.428 471.72 334.426 471.017 335.934 469.985C336.536 469.573 337.059 469.109 337.475 468.616L336.945 471.365H342.334L346.663 449.02H341.273L340.744 451.725C340.5 451.223 340.159 450.766 339.733 450.366C338.613 449.316 336.904 448.665 334.824 448.665C328.242 448.665 323.383 453.365 322.058 460.193ZM339.462 460.192C340.257 456.069 338.402 453.365 334.78 453.365C331.158 453.365 328.242 456.069 327.446 460.192C326.652 464.315 328.551 467.02 332.129 467.02C335.707 467.02 338.667 464.315 339.462 460.192ZM338.252 459.846C338.578 458.049 338.3 456.754 337.745 455.945C337.206 455.159 336.263 454.622 334.78 454.622C331.878 454.622 329.383 456.772 328.677 460.431M338.252 459.846L338.231 459.953C337.527 463.607 334.99 465.762 332.129 465.762C330.673 465.762 329.725 465.229 329.178 464.436C328.606 463.608 328.321 462.277 328.677 460.431M328.504 447.867L326.255 442.315L341.444 439.287L343.693 444.838L328.504 447.867ZM342.55 433.027H309.648C305.838 433.027 302.749 436.127 302.749 439.951V474.137C302.749 477.961 305.838 481.061 309.648 481.061H342.55C346.36 481.061 349.449 477.961 349.449 474.137V439.951C349.449 436.127 346.36 433.027 342.55 433.027ZM341.961 443.902L340.673 440.723L327.987 443.252L329.275 446.431L341.961 443.902ZM342.55 431.77H309.648C305.146 431.77 301.496 435.433 301.496 439.951V474.137C301.496 478.656 305.146 482.319 309.648 482.319H342.55C347.052 482.319 350.702 478.656 350.702 474.137V439.951C350.702 435.433 347.052 431.77 342.55 431.77Z" fill="url(#paint18_linear_2512_1428)"/>
<path fill-rule="evenodd" clip-rule="evenodd" d="M2.20308 526.69H7.34318C8.14804 526.69 8.57421 526.467 8.87995 526.126C9.24379 525.72 9.57431 524.992 9.82452 523.716L9.82481 523.715L14.2615 500.754H22.6453L18.0712 524.417C17.4612 527.596 16.214 530.088 14.3478 531.788C12.4686 533.5 10.0757 534.303 7.3876 534.303H2.20308V526.69ZM16.8407 524.179L21.1258 502.011H15.2949L11.0543 523.957C10.5242 526.662 9.50791 527.948 7.34318 527.948H3.45614V533.046H7.3876C12.2466 533.046 15.6923 530.164 16.8407 524.179ZM19.3043 521.752L19.3274 521.633C20.7449 514.332 26.0308 509.089 33.3237 509.089C35.3394 509.089 37.1529 509.643 38.5072 510.643L38.742 509.444H46.6826L41.8665 534.304H33.9252L34.1137 533.326C32.571 534.148 30.7454 534.659 28.906 534.659C25.5666 534.659 22.7844 533.219 21.0346 530.805C19.3159 528.433 18.6689 525.23 19.3043 521.757V521.752ZM20.5574 521.874C19.3201 528.347 22.9869 533.401 28.906 533.401C30.9274 533.401 32.9258 532.699 34.4338 531.667C35.0351 531.255 35.5584 530.791 35.9741 530.298L35.444 533.046H40.8336L45.1625 510.702H39.7728L39.2434 513.406C38.9997 512.905 38.6587 512.447 38.2323 512.048C37.1123 510.998 35.4033 510.347 33.3237 510.347C26.7418 510.347 21.8829 515.047 20.5574 521.874ZM37.9617 521.874C38.7565 517.75 36.9015 515.046 33.2792 515.046C29.6569 515.046 26.7412 517.751 25.9458 521.874C25.151 525.997 27.0504 528.701 30.6283 528.701C34.2061 528.701 37.1669 525.997 37.9617 521.874ZM36.7516 521.527C37.0778 519.73 36.7998 518.436 36.2447 517.627C35.7052 516.84 34.762 516.304 33.2792 516.304C30.3777 516.304 27.882 518.454 27.1761 522.113C26.8201 523.959 27.1053 525.289 27.6773 526.117C28.2246 526.91 29.1721 527.444 30.6283 527.444C33.4898 527.444 36.0265 525.289 36.7309 521.635L36.7516 521.527ZM27.0033 509.548L24.7548 503.997L39.9436 500.968L42.1921 506.52L27.0033 509.548ZM41.0535 494.708H8.15194C4.34199 494.708 1.25305 497.808 1.25305 501.633V535.818C1.25305 539.643 4.34199 542.743 8.15194 542.743H41.0535C44.8634 542.743 47.9524 539.643 47.9524 535.818V501.633C47.9524 497.808 44.8634 494.708 41.0535 494.708ZM40.4601 505.583L39.1725 502.404L26.4868 504.933L27.7743 508.112L40.4601 505.583ZM41.0535 493.451H8.15194C3.64974 493.451 0 497.114 0 501.633V535.818C0 540.337 3.64974 544 8.15194 544H41.0535C45.5557 544 49.2054 540.337 49.2054 535.818V501.633C49.2054 497.114 45.5557 493.451 41.0535 493.451Z" fill="url(#paint19_linear_2512_1428)"/>
<path fill-rule="evenodd" clip-rule="evenodd" d="M62.5063 526.69H67.6464C68.4512 526.69 68.8774 526.467 69.1831 526.126C69.547 525.72 69.8775 524.992 70.1277 523.716L70.128 523.715L74.5647 500.754H82.9484L78.3744 524.417C77.7644 527.596 76.5172 530.088 74.651 531.788C72.7718 533.5 70.3789 534.303 67.6908 534.303H62.5063V526.69ZM77.1439 524.179L81.429 502.011H75.5981L71.3575 523.957C70.8274 526.662 69.8111 527.948 67.6464 527.948H63.7593V533.046H67.6908C72.5497 533.046 75.9955 530.164 77.1439 524.179ZM79.6078 521.752L79.6309 521.633C81.0483 514.332 86.3342 509.089 93.6271 509.089C95.6429 509.089 97.4563 509.643 98.8107 510.643L99.0454 509.444H106.986L102.17 534.304H94.2286L94.4171 533.326C92.8745 534.148 91.0488 534.659 89.2094 534.659C85.87 534.659 83.0879 533.219 81.338 530.805C79.6193 528.433 78.9723 525.23 79.6078 521.757V521.752ZM80.8608 521.874C79.6236 528.347 83.2903 533.401 89.2094 533.401C91.2308 533.401 93.2293 532.699 94.7372 531.667C95.3385 531.255 95.8618 530.791 96.2775 530.298L95.7474 533.046H101.137L105.466 510.702H100.076L99.5468 513.406C99.3032 512.905 98.9621 512.447 98.5357 512.048C97.4157 510.998 95.7067 510.347 93.6271 510.347C87.0453 510.347 82.1863 515.047 80.8608 521.874ZM98.2652 521.874C99.06 517.75 97.205 515.046 93.5827 515.046C89.9604 515.046 87.0447 517.751 86.2493 521.874C85.4544 525.997 87.3538 528.701 90.9317 528.701C94.5096 528.701 97.4703 525.997 98.2652 521.874ZM97.0551 521.527C97.3812 519.73 97.1032 518.436 96.5481 517.627C96.0087 516.84 95.0654 516.304 93.5827 516.304C90.6811 516.304 88.1854 518.454 87.4795 522.113C87.1235 523.959 87.4088 525.289 87.9807 526.117C88.5281 526.91 89.4756 527.444 90.9317 527.444C93.7933 527.444 96.3299 525.289 97.0343 521.635L97.0551 521.527ZM87.3067 509.548L85.0582 503.997L100.247 500.968L102.495 506.52L87.3067 509.548ZM101.352 494.708H68.4502C64.6403 494.708 61.5513 497.808 61.5513 501.633V535.818C61.5513 539.643 64.6403 542.743 68.4502 542.743H101.352C105.162 542.743 108.251 539.643 108.251 535.818V501.633C108.251 497.808 105.162 494.708 101.352 494.708ZM100.764 505.583L99.4759 502.404L86.7902 504.933L88.0778 508.112L100.764 505.583ZM101.352 493.451H68.4502C63.948 493.451 60.2983 497.114 60.2983 501.633V535.818C60.2983 540.337 63.948 544 68.4502 544H101.352C105.854 544 109.504 540.337 109.504 535.818V501.633C109.504 497.114 105.854 493.451 101.352 493.451Z" fill="url(#paint20_linear_2512_1428)"/>
<path fill-rule="evenodd" clip-rule="evenodd" d="M183.1 526.69H188.24C189.045 526.69 189.471 526.467 189.777 526.126C190.141 525.72 190.471 524.992 190.722 523.716L190.722 523.715L195.159 500.754H203.542L198.968 524.417C198.358 527.596 197.111 530.088 195.245 531.788C193.366 533.5 190.973 534.303 188.285 534.303H183.1V526.69ZM197.738 524.179L202.023 502.011H196.192L191.951 523.957C191.421 526.662 190.405 527.948 188.24 527.948H184.353V533.046H188.285C193.144 533.046 196.589 530.164 197.738 524.179ZM200.201 521.752L200.224 521.633C201.642 514.332 206.928 509.089 214.221 509.089C216.236 509.089 218.05 509.643 219.404 510.643L219.639 509.444H227.579L222.763 534.304H214.822L215.011 533.326C213.468 534.148 211.642 534.659 209.803 534.659C206.463 534.659 203.681 533.219 201.931 530.805C200.213 528.433 199.566 525.23 200.201 521.757V521.752ZM201.454 521.874C200.217 528.347 203.884 533.401 209.803 533.401C211.824 533.401 213.823 532.699 215.331 531.667C215.932 531.255 216.455 530.791 216.871 530.298L216.341 533.046H221.73L226.059 510.702H220.67L220.14 513.406C219.897 512.905 219.556 512.447 219.129 512.048C218.009 510.998 216.3 510.347 214.221 510.347C207.639 510.347 202.78 515.047 201.454 521.874ZM218.859 521.874C219.653 517.75 217.798 515.046 214.176 515.046C210.554 515.046 207.638 517.751 206.843 521.874C206.048 525.997 207.947 528.701 211.525 528.701C215.103 528.701 218.064 525.997 218.859 521.874ZM217.648 521.527C217.975 519.73 217.697 518.436 217.142 517.627C216.602 516.84 215.659 516.304 214.176 516.304C211.275 516.304 208.779 518.454 208.073 522.113C207.717 523.959 208.002 525.289 208.574 526.117C209.121 526.91 210.069 527.444 211.525 527.444C214.387 527.444 216.923 525.289 217.628 521.635L217.648 521.527ZM207.9 509.548L205.652 503.997L220.84 500.968L223.089 506.52L207.9 509.548ZM221.948 494.708H189.047C185.237 494.708 182.148 497.808 182.148 501.633V535.818C182.148 539.643 185.237 542.743 189.047 542.743H221.948C225.758 542.743 228.847 539.643 228.847 535.818V501.633C228.847 497.808 225.758 494.708 221.948 494.708ZM221.357 505.583L220.069 502.404L207.384 504.933L208.671 508.112L221.357 505.583ZM221.948 493.451H189.047C184.545 493.451 180.895 497.114 180.895 501.633V535.818C180.895 540.337 184.545 544 189.047 544H221.948C226.451 544 230.1 540.337 230.1 535.818V501.633C230.1 497.114 226.451 493.451 221.948 493.451Z" fill="url(#paint21_linear_2512_1428)"/>
<path fill-rule="evenodd" clip-rule="evenodd" d="M243.406 526.69H248.546C249.351 526.69 249.777 526.467 250.082 526.126C250.446 525.72 250.777 524.992 251.027 523.716L251.027 523.715L255.464 500.754H263.848L259.274 524.417C258.664 527.596 257.417 530.088 255.55 531.788C253.671 533.5 251.278 534.303 248.59 534.303H243.406V526.69ZM258.043 524.179L262.328 502.011H256.497L252.257 523.957C251.727 526.662 250.71 527.948 248.546 527.948H244.659V533.046H248.59C253.449 533.046 256.895 530.164 258.043 524.179ZM260.507 521.752L260.53 521.633C261.947 514.332 267.233 509.089 274.526 509.089C276.542 509.089 278.355 509.643 279.71 510.643L279.945 509.444H287.885L283.069 534.304H275.128L275.316 533.326C273.774 534.148 271.948 534.659 270.108 534.659C266.769 534.659 263.987 533.219 262.237 530.805C260.518 528.433 259.871 525.23 260.507 521.757V521.752ZM261.76 521.874C260.523 528.347 264.189 533.401 270.108 533.401C272.13 533.401 274.128 532.699 275.636 531.667C276.238 531.255 276.761 530.791 277.177 530.298L276.646 533.046H282.036L286.365 510.702H280.975L280.446 513.406C280.202 512.905 279.861 512.447 279.435 512.048C278.315 510.998 276.606 510.347 274.526 510.347C267.944 510.347 263.085 515.047 261.76 521.874ZM279.164 521.874C279.959 517.75 278.104 515.046 274.482 515.046C270.859 515.046 267.944 517.751 267.148 521.874C266.354 525.997 268.253 528.701 271.831 528.701C275.409 528.701 278.369 525.997 279.164 521.874ZM277.954 521.527C278.28 519.73 278.002 518.436 277.447 517.627C276.908 516.84 275.965 516.304 274.482 516.304C271.58 516.304 269.085 518.454 268.379 522.113M277.954 521.527L277.933 521.635C277.229 525.289 274.692 527.444 271.831 527.444C270.375 527.444 269.427 526.91 268.88 526.117C268.308 525.289 268.023 523.959 268.379 522.113M268.206 509.548L265.957 503.997L281.146 500.968L283.395 506.52L268.206 509.548ZM282.251 494.708H249.35C245.54 494.708 242.451 497.808 242.451 501.633V535.818C242.451 539.643 245.54 542.743 249.35 542.743H282.251C286.061 542.743 289.15 539.643 289.15 535.818V501.633C289.15 497.808 286.061 494.708 282.251 494.708ZM281.663 505.583L280.375 502.404L267.689 504.933L268.977 508.112L281.663 505.583ZM282.251 493.451H249.35C244.848 493.451 241.198 497.114 241.198 501.633V535.818C241.198 540.337 244.848 544 249.35 544H282.251C286.754 544 290.403 540.337 290.403 535.818V501.633C290.403 497.114 286.754 493.451 282.251 493.451Z" fill="url(#paint22_linear_2512_1428)"/>
<defs>
<linearGradient id="paint0_linear_2512_1428" x1="343.917" y1="531.722" x2="-26.7228" y2="-10.0568" gradientUnits="userSpaceOnUse">
<stop stop-color="#E62E59"/>
<stop offset="0.9375" stop-color="#EA305B" stop-opacity="0"/>
</linearGradient>
<linearGradient id="paint1_linear_2512_1428" x1="343.917" y1="531.722" x2="-26.7228" y2="-10.0568" gradientUnits="userSpaceOnUse">
<stop stop-color="#E62E59"/>
<stop offset="0.9375" stop-color="#EA305B" stop-opacity="0"/>
</linearGradient>
<linearGradient id="paint2_linear_2512_1428" x1="343.917" y1="531.722" x2="-26.7228" y2="-10.0568" gradientUnits="userSpaceOnUse">
<stop stop-color="#E62E59"/>
<stop offset="0.9375" stop-color="#EA305B" stop-opacity="0"/>
</linearGradient>
<linearGradient id="paint3_linear_2512_1428" x1="343.917" y1="531.722" x2="-26.7228" y2="-10.0568" gradientUnits="userSpaceOnUse">
<stop stop-color="#E62E59"/>
<stop offset="0.9375" stop-color="#EA305B" stop-opacity="0"/>
</linearGradient>
<linearGradient id="paint4_linear_2512_1428" x1="343.917" y1="531.722" x2="-26.7228" y2="-10.0568" gradientUnits="userSpaceOnUse">
<stop stop-color="#E62E59"/>
<stop offset="0.9375" stop-color="#EA305B" stop-opacity="0"/>
</linearGradient>
<linearGradient id="paint5_linear_2512_1428" x1="343.917" y1="531.722" x2="-26.7228" y2="-10.0568" gradientUnits="userSpaceOnUse">
<stop stop-color="#E62E59"/>
<stop offset="0.9375" stop-color="#EA305B" stop-opacity="0"/>
</linearGradient>
<linearGradient id="paint6_linear_2512_1428" x1="343.917" y1="531.722" x2="-26.7228" y2="-10.0568" gradientUnits="userSpaceOnUse">
<stop stop-color="#E62E59"/>
<stop offset="0.9375" stop-color="#EA305B" stop-opacity="0"/>
</linearGradient>
<linearGradient id="paint7_linear_2512_1428" x1="343.917" y1="531.722" x2="-26.7228" y2="-10.0568" gradientUnits="userSpaceOnUse">
<stop stop-color="#E62E59"/>
<stop offset="0.9375" stop-color="#EA305B" stop-opacity="0"/>
</linearGradient>
<linearGradient id="paint8_linear_2512_1428" x1="343.917" y1="531.722" x2="-26.7228" y2="-10.0568" gradientUnits="userSpaceOnUse">
<stop stop-color="#E62E59"/>
<stop offset="0.9375" stop-color="#EA305B" stop-opacity="0"/>
</linearGradient>
<linearGradient id="paint9_linear_2512_1428" x1="343.917" y1="531.722" x2="-26.7228" y2="-10.0568" gradientUnits="userSpaceOnUse">
<stop stop-color="#E62E59"/>
<stop offset="0.9375" stop-color="#EA305B" stop-opacity="0"/>
</linearGradient>
<linearGradient id="paint10_linear_2512_1428" x1="343.917" y1="531.722" x2="-26.7228" y2="-10.0568" gradientUnits="userSpaceOnUse">
<stop stop-color="#E62E59"/>
<stop offset="0.9375" stop-color="#EA305B" stop-opacity="0"/>
</linearGradient>
<linearGradient id="paint11_linear_2512_1428" x1="343.917" y1="531.722" x2="-26.7228" y2="-10.0568" gradientUnits="userSpaceOnUse">
<stop stop-color="#E62E59"/>
<stop offset="0.9375" stop-color="#EA305B" stop-opacity="0"/>
</linearGradient>
<linearGradient id="paint12_linear_2512_1428" x1="343.917" y1="531.722" x2="-26.7228" y2="-10.0568" gradientUnits="userSpaceOnUse">
<stop stop-color="#E62E59"/>
<stop offset="0.9375" stop-color="#EA305B" stop-opacity="0"/>
</linearGradient>
<linearGradient id="paint13_linear_2512_1428" x1="343.917" y1="531.722" x2="-26.7228" y2="-10.0568" gradientUnits="userSpaceOnUse">
<stop stop-color="#E62E59"/>
<stop offset="0.9375" stop-color="#EA305B" stop-opacity="0"/>
</linearGradient>
<linearGradient id="paint14_linear_2512_1428" x1="343.917" y1="531.722" x2="-26.7228" y2="-10.0568" gradientUnits="userSpaceOnUse">
<stop stop-color="#E62E59"/>
<stop offset="0.9375" stop-color="#EA305B" stop-opacity="0"/>
</linearGradient>
<linearGradient id="paint15_linear_2512_1428" x1="343.917" y1="531.722" x2="-26.7228" y2="-10.0568" gradientUnits="userSpaceOnUse">
<stop stop-color="#E62E59"/>
<stop offset="0.9375" stop-color="#EA305B" stop-opacity="0"/>
</linearGradient>
<linearGradient id="paint16_linear_2512_1428" x1="343.917" y1="531.722" x2="-26.7228" y2="-10.0568" gradientUnits="userSpaceOnUse">
<stop stop-color="#E62E59"/>
<stop offset="0.9375" stop-color="#EA305B" stop-opacity="0"/>
</linearGradient>
<linearGradient id="paint17_linear_2512_1428" x1="343.917" y1="531.722" x2="-26.7228" y2="-10.0568" gradientUnits="userSpaceOnUse">
<stop stop-color="#E62E59"/>
<stop offset="0.9375" stop-color="#EA305B" stop-opacity="0"/>
</linearGradient>
<linearGradient id="paint18_linear_2512_1428" x1="343.917" y1="531.722" x2="-26.7228" y2="-10.0568" gradientUnits="userSpaceOnUse">
<stop stop-color="#E62E59"/>
<stop offset="0.9375" stop-color="#EA305B" stop-opacity="0"/>
</linearGradient>
<linearGradient id="paint19_linear_2512_1428" x1="343.917" y1="531.722" x2="-26.7228" y2="-10.0568" gradientUnits="userSpaceOnUse">
<stop stop-color="#E62E59"/>
<stop offset="0.9375" stop-color="#EA305B" stop-opacity="0"/>
</linearGradient>
<linearGradient id="paint20_linear_2512_1428" x1="343.917" y1="531.722" x2="-26.7228" y2="-10.0568" gradientUnits="userSpaceOnUse">
<stop stop-color="#E62E59"/>
<stop offset="0.9375" stop-color="#EA305B" stop-opacity="0"/>
</linearGradient>
<linearGradient id="paint21_linear_2512_1428" x1="343.917" y1="531.722" x2="-26.7228" y2="-10.0568" gradientUnits="userSpaceOnUse">
<stop stop-color="#E62E59"/>
<stop offset="0.9375" stop-color="#EA305B" stop-opacity="0"/>
</linearGradient>
<linearGradient id="paint22_linear_2512_1428" x1="343.917" y1="531.722" x2="-26.7228" y2="-10.0568" gradientUnits="userSpaceOnUse">
<stop stop-color="#E62E59"/>
<stop offset="0.9375" stop-color="#EA305B" stop-opacity="0"/>
</linearGradient>
</defs>
</svg>
