<svg width="56" height="56" viewBox="0 0 56 56" fill="none" xmlns="http://www.w3.org/2000/svg">
<path d="M46.7224 0H9.2776C4.15372 0 0 4.05804 0 9.06389V46.9361C0 51.942 4.15372 56 9.2776 56H46.7224C51.8463 56 56 51.942 56 46.9361V9.06389C56 4.05804 51.8463 0 46.7224 0Z" fill="#041F4F"/>
<path d="M38.6667 15V16.599C37.3333 16.999 36 18.2 36 20.3333C36 22.8667 38.1328 23.6672 39.4661 24.2005C41.0661 24.8672 41.3333 25 41.3333 25.6667C41.3333 26.3333 41.0667 27 40 27C38.9333 27 38.6667 26.3333 38.6667 25.6667H36C36 27 36.8 28.8677 38.6667 29.401V31H41.3333V29.401C43.2 28.8677 44 27 44 25.6667C44 23.1333 41.8672 22.3328 40.5339 21.7995C38.9339 21.1328 38.6667 21 38.6667 20.3333C38.6667 19.2667 39.3333 19 40 19C41.0667 19 41.3333 19.6667 41.3333 20.3333H42.6667H44C44 19 43.2 17.1323 41.3333 16.599V15H38.6667ZM17.3333 20.3333C15.8627 20.3333 14.6667 21.5293 14.6667 23V36.3333C14.6667 37.804 15.8627 39 17.3333 39H12V41.6667H44V39H38.6667C40.1373 39 41.3333 37.804 41.3333 36.3333V33.6667H38.6693V36.3333H17.3333V23H33.3333V20.3333H17.3333Z" fill="white"/>
</svg>
