<svg width="57" height="56" viewBox="0 0 57 56" fill="none" xmlns="http://www.w3.org/2000/svg">
<path d="M47.6403 0H10.1956C5.07169 0 0.917969 4.05804 0.917969 9.06389V46.9361C0.917969 51.942 5.07169 56 10.1956 56H47.6403C52.7642 56 56.918 51.942 56.918 46.9361V9.06389C56.918 4.05804 52.7642 0 47.6403 0Z" fill="#E62E59"/>
<path d="M39.5846 15V16.599C38.2513 16.999 36.918 18.2 36.918 20.3333C36.918 22.8667 39.0508 23.6672 40.3841 24.2005C41.9841 24.8672 42.2513 25 42.2513 25.6667C42.2513 26.3333 41.9846 27 40.918 27C39.8513 27 39.5846 26.3333 39.5846 25.6667H36.918C36.918 27 37.718 28.8677 39.5846 29.401V31H42.2513V29.401C44.118 28.8677 44.918 27 44.918 25.6667C44.918 23.1333 42.7852 22.3328 41.4518 21.7995C39.8518 21.1328 39.5846 21 39.5846 20.3333C39.5846 19.2667 40.2513 19 40.918 19C41.9846 19 42.2513 19.6667 42.2513 20.3333H43.5846H44.918C44.918 19 44.118 17.1323 42.2513 16.599V15H39.5846ZM18.2513 20.3333C16.7806 20.3333 15.5846 21.5293 15.5846 23V36.3333C15.5846 37.804 16.7806 39 18.2513 39H12.918V41.6667H44.918V39H39.5846C41.0553 39 42.2513 37.804 42.2513 36.3333V33.6667H39.5872V36.3333H18.2513V23H34.2513V20.3333H18.2513Z" fill="white"/>
</svg>
