<svg width="32" height="32" viewBox="0 0 32 32" fill="none" xmlns="http://www.w3.org/2000/svg">
<path d="M13.3346 2.66663C7.4533 2.66663 2.66797 7.45196 2.66797 13.3333C2.66797 19.2146 7.4533 24 13.3346 24C19.216 24 24.0013 19.2146 24.0013 13.3333C24.0013 7.45196 19.216 2.66663 13.3346 2.66663ZM12.9518 5.35152V6.70308C12.4998 6.76042 9.97005 7.23829 9.97005 10.2916C9.97005 14.7463 14.582 13.4264 14.582 16.3984C14.582 17.8864 13.6192 17.9218 13.4232 17.9218C13.2445 17.9218 12.0716 18.0169 12.0716 15.7395H9.55078C9.55078 19.5955 12.3483 19.9036 12.7643 19.9609V21.3046C8.61836 21.0105 5.33464 17.553 5.33464 13.3333C5.33464 9.05036 8.71799 5.55301 12.9518 5.35152ZM14.2956 5.3984C18.2552 5.87509 21.3346 9.247 21.3346 13.3333C21.3346 17.4871 18.1544 20.9078 14.1003 21.2942V19.9609C14.5509 19.9049 17.1003 19.4842 17.1003 16.3802C17.1003 12.1068 12.4896 12.9247 12.4883 10.302C12.4883 8.79938 13.3148 8.75256 13.4935 8.75256C13.8202 8.75256 14.5977 9.04169 14.5977 10.8724H17.1185C17.1185 7.36969 14.7236 6.82348 14.2956 6.74215V5.3984ZM26.5247 11.4765C26.6101 12.0859 26.668 12.7013 26.668 13.3333C26.668 14.3653 26.5391 15.3641 26.3164 16.3281C26.5431 17.0681 26.668 17.8533 26.668 18.6666C26.668 23.0786 23.08 26.6666 18.668 26.6666C17.8546 26.6666 17.0694 26.5417 16.3294 26.3151C15.3654 26.5377 14.3666 26.6666 13.3346 26.6666C12.7026 26.6666 12.0872 26.6087 11.4779 26.5234C13.3765 28.2621 15.896 29.3333 18.668 29.3333C24.5493 29.3333 29.3346 24.548 29.3346 18.6666C29.3346 15.8946 28.2634 13.3752 26.5247 11.4765Z" fill="#E62E59"/>
</svg>
