<svg width="32" height="32" viewBox="0 0 32 32" fill="none" xmlns="http://www.w3.org/2000/svg">
<path d="M26.6667 0V1.59896C25.3333 1.99896 24 3.2 24 5.33333C24 7.86667 26.1328 8.66719 27.4661 9.20052C29.0661 9.86719 29.3333 10 29.3333 10.6667C29.3333 11.3333 29.0667 12 28 12C26.9333 12 26.6667 11.3333 26.6667 10.6667H24C24 12 24.8 13.8677 26.6667 14.401V16H29.3333V14.401C31.2 13.8677 32 12 32 10.6667C32 8.13333 29.8672 7.33281 28.5339 6.79948C26.9339 6.13281 26.6667 6 26.6667 5.33333C26.6667 4.26667 27.3333 4 28 4C29.0667 4 29.3333 4.66667 29.3333 5.33333H30.6667H32C32 4 31.2 2.13229 29.3333 1.59896V0H26.6667ZM5.33333 5.33333C3.86267 5.33333 2.66667 6.52933 2.66667 8V21.3333C2.66667 22.804 3.86267 24 5.33333 24H0V26.6667H32V24H26.6667C28.1373 24 29.3333 22.804 29.3333 21.3333V18.6667H26.6693V21.3333H5.33333V8H21.3333V5.33333H5.33333Z" fill="white"/>
</svg>
