<svg width="32" height="32" viewBox="0 0 32 32" fill="none" xmlns="http://www.w3.org/2000/svg">
<path d="M4.0013 4C3.2653 4 2.66797 4.59733 2.66797 5.33333V18.6667C2.66797 19.4027 3.2653 20 4.0013 20H28.0013C28.7373 20 29.3346 19.4027 29.3346 18.6667V5.33333C29.3346 4.59733 28.7373 4 28.0013 4H4.0013ZM6.55078 6.66667H25.4518C25.5513 6.94707 25.7121 7.20175 25.9225 7.41214C26.1329 7.62253 26.3876 7.78333 26.668 7.88281V16.1172C26.3876 16.2167 26.1329 16.3775 25.9225 16.5879C25.7121 16.7982 25.5513 17.0529 25.4518 17.3333H6.55078C6.45129 17.0529 6.2905 16.7982 6.08011 16.5879C5.86972 16.3775 5.61504 16.2167 5.33464 16.1172V7.88281C5.61504 7.78333 5.86972 7.62253 6.08011 7.41214C6.2905 7.20175 6.45129 6.94707 6.55078 6.66667ZM16.0013 8C14.9404 8 13.923 8.42143 13.1729 9.17157C12.4227 9.92172 12.0013 10.9391 12.0013 12C12.0013 13.0609 12.4227 14.0783 13.1729 14.8284C13.923 15.5786 14.9404 16 16.0013 16C17.0622 16 18.0796 15.5786 18.8297 14.8284C19.5799 14.0783 20.0013 13.0609 20.0013 12C20.0013 10.9391 19.5799 9.92172 18.8297 9.17157C18.0796 8.42143 17.0622 8 16.0013 8ZM9.33463 10.6667C8.59864 10.6667 8.0013 11.2627 8.0013 12C8.0013 12.7373 8.59864 13.3333 9.33463 13.3333C10.0706 13.3333 10.668 12.7373 10.668 12C10.668 11.2627 10.0706 10.6667 9.33463 10.6667ZM22.668 10.6667C21.932 10.6667 21.3346 11.2627 21.3346 12C21.3346 12.7373 21.932 13.3333 22.668 13.3333C23.404 13.3333 24.0013 12.7373 24.0013 12C24.0013 11.2627 23.404 10.6667 22.668 10.6667ZM5.32161 22.6667L25.6393 27.9583C26.3527 28.1437 27.079 27.7146 27.2643 27.0026L28.3945 22.6667H25.6393L25.3242 23.8672C24.7255 23.9192 24.185 24.2384 23.8477 24.7344L15.9049 22.6667H5.32161Z" fill="#E62E59"/>
</svg>
