<svg width="92" height="15" viewBox="0 0 92 15" fill="none" xmlns="http://www.w3.org/2000/svg">
<path d="M6.73605 0.580378C6.97651 -0.193459 8.02349 -0.19346 8.26395 0.580377L9.48378 4.50601C9.59132 4.85208 9.89974 5.08639 10.2477 5.08639H14.1952C14.9733 5.08639 15.2969 6.12758 14.6673 6.60583L11.4738 9.03201C11.1922 9.24589 11.0744 9.62501 11.182 9.97108L12.4018 13.8967C12.6423 14.6705 11.7952 15.314 11.1657 14.8358L7.97215 12.4096C7.69061 12.1957 7.30939 12.1957 7.02785 12.4096L3.83429 14.8358C3.20476 15.314 2.35773 14.6705 2.59819 13.8967L3.81802 9.97108C3.92556 9.62501 3.80776 9.24589 3.52622 9.03201L0.332657 6.60583C-0.296872 6.12758 0.0266629 5.08639 0.804803 5.08639H4.75227C5.10026 5.08639 5.40868 4.85208 5.51622 4.50601L6.73605 0.580378Z" fill="#FBBE28"/>
<path d="M25.7361 0.580378C25.9765 -0.193459 27.0235 -0.19346 27.2639 0.580377L28.4838 4.50601C28.5913 4.85208 28.8997 5.08639 29.2477 5.08639H33.1952C33.9733 5.08639 34.2969 6.12758 33.6673 6.60583L30.4738 9.03201C30.1922 9.24589 30.0744 9.62501 30.182 9.97108L31.4018 13.8967C31.6423 14.6705 30.7952 15.314 30.1657 14.8358L26.9721 12.4096C26.6906 12.1957 26.3094 12.1957 26.0279 12.4096L22.8343 14.8358C22.2048 15.314 21.3577 14.6705 21.5982 13.8967L22.818 9.97108C22.9256 9.62501 22.8078 9.24589 22.5262 9.03201L19.3327 6.60583C18.7031 6.12758 19.0267 5.08639 19.8048 5.08639H23.7523C24.1003 5.08639 24.4087 4.85208 24.5162 4.50601L25.7361 0.580378Z" fill="#FBBE28"/>
<path d="M44.7361 0.580378C44.9765 -0.193459 46.0235 -0.19346 46.2639 0.580377L47.4838 4.50601C47.5913 4.85208 47.8997 5.08639 48.2477 5.08639H52.1952C52.9733 5.08639 53.2969 6.12758 52.6673 6.60583L49.4738 9.03201C49.1922 9.24589 49.0744 9.62501 49.182 9.97108L50.4018 13.8967C50.6423 14.6705 49.7952 15.314 49.1657 14.8358L45.9721 12.4096C45.6906 12.1957 45.3094 12.1957 45.0279 12.4096L41.8343 14.8358C41.2048 15.314 40.3577 14.6705 40.5982 13.8967L41.818 9.97108C41.9256 9.62501 41.8078 9.24589 41.5262 9.03201L38.3327 6.60583C37.7031 6.12758 38.0267 5.08639 38.8048 5.08639H42.7523C43.1003 5.08639 43.4087 4.85208 43.5162 4.50601L44.7361 0.580378Z" fill="#FBBE28"/>
<path d="M63.7361 0.580378C63.9765 -0.193459 65.0235 -0.19346 65.2639 0.580377L66.4838 4.50601C66.5913 4.85208 66.8997 5.08639 67.2477 5.08639H71.1952C71.9733 5.08639 72.2969 6.12758 71.6673 6.60583L68.4738 9.03201C68.1922 9.24589 68.0744 9.62501 68.182 9.97108L69.4018 13.8967C69.6423 14.6705 68.7952 15.314 68.1657 14.8358L64.9721 12.4096C64.6906 12.1957 64.3094 12.1957 64.0279 12.4096L60.8343 14.8358C60.2048 15.314 59.3577 14.6705 59.5982 13.8967L60.818 9.97108C60.9256 9.62501 60.8078 9.24589 60.5262 9.03201L57.3327 6.60583C56.7031 6.12758 57.0267 5.08639 57.8048 5.08639H61.7523C62.1003 5.08639 62.4087 4.85208 62.5162 4.50601L63.7361 0.580378Z" fill="#FBBE28"/>
<path d="M83.7361 0.580378C83.9765 -0.193459 85.0235 -0.19346 85.2639 0.580377L86.4838 4.50601C86.5913 4.85208 86.8997 5.08639 87.2477 5.08639H91.1952C91.9733 5.08639 92.2969 6.12758 91.6673 6.60583L88.4738 9.03201C88.1922 9.24589 88.0744 9.62501 88.182 9.97108L89.4018 13.8967C89.6423 14.6705 88.7952 15.314 88.1657 14.8358L84.9721 12.4096C84.6906 12.1957 84.3094 12.1957 84.0279 12.4096L80.8343 14.8358C80.2048 15.314 79.3577 14.6705 79.5982 13.8967L80.818 9.97108C80.9256 9.62501 80.8078 9.24589 80.5262 9.03201L77.3327 6.60583C76.7031 6.12758 77.0267 5.08639 77.8048 5.08639H81.7523C82.1003 5.08639 82.4087 4.85208 82.5162 4.50601L83.7361 0.580378Z" fill="#FBBE28"/>
</svg>
