<svg width="32" height="32" viewBox="0 0 32 32" fill="none" xmlns="http://www.w3.org/2000/svg">
<path d="M11 4C10.4778 4 9.94539 4.19133 9.56836 4.56836C9.19133 4.94539 9 5.47778 9 6V6.01953C8.81335 6.02051 8.62603 6.03176 8.44336 6.06641C7.60965 6.22454 6.84562 6.72592 6.39648 7.51172L3.18555 13.1289C2.40781 14.4885 2 16.0279 2 17.5938V21C2 24.8543 5.14567 28 9 28H11H25H26C27.645 28 29 26.645 29 25C29 24.3929 28.6633 23.9121 28.3477 23.4375C29.2696 22.923 30 22.1214 30 21C30 20.223 29.6584 19.5354 29.166 19C29.6584 18.4646 30 17.777 30 17C30 15.8786 29.2696 15.077 28.3477 14.5625C28.6633 14.0879 29 13.6071 29 13C29 11.355 27.645 10 26 10H25V6C25 5.47778 24.8087 4.94539 24.4316 4.56836C24.0546 4.19133 23.5222 4 23 4H11ZM11 6H23V10.7871C22.3918 11.3378 22 12.1236 22 13C22 13.6071 22.3367 14.0879 22.6523 14.5625C21.7304 15.077 21 15.8786 21 17C21 17.777 21.3416 18.4646 21.834 19C21.3416 19.5354 21 20.223 21 21C21 22.1214 21.7304 22.923 22.6523 23.4375C22.3367 23.9121 22 24.3929 22 25C22 25.3518 22.0739 25.6851 22.1875 26H11V11.8301L11.5977 10.4922L11.5527 10.5801C12.2505 9.35974 12.0922 7.75305 11 6.77734V6ZM8.80469 8.00586C9.07773 7.9518 9.37886 8.01845 9.64258 8.23242C9.99855 8.5207 10.0842 9.1195 9.81641 9.58789L9.79102 9.63086L6.94531 16H9V26C6.22633 26 4 23.7737 4 21V17.5938C4 16.3756 4.31761 15.1775 4.92188 14.1211L8.13281 8.50391C8.28668 8.2347 8.53164 8.05992 8.80469 8.00586ZM25 12H26C26.565 12 27 12.435 27 13C27 13.565 26.565 14 26 14H25C24.435 14 24 13.565 24 13C24 12.435 24.435 12 25 12ZM24 16H25H26H27C27.565 16 28 16.435 28 17C28 17.565 27.565 18 27 18H24C23.435 18 23 17.565 23 17C23 16.435 23.435 16 24 16ZM24 20H27C27.565 20 28 20.435 28 21C28 21.565 27.565 22 27 22H26H25H24C23.435 22 23 21.565 23 21C23 20.435 23.435 20 24 20ZM15 23V25H19V23H15ZM25 24H26C26.565 24 27 24.435 27 25C27 25.565 26.565 26 26 26H25C24.435 26 24 25.565 24 25C24 24.435 24.435 24 25 24Z" fill="#E62E59"/>
</svg>
