<svg width="23" height="17" viewBox="0 0 23 17" fill="none" xmlns="http://www.w3.org/2000/svg">
<path d="M12.913 4L13.2711 1.05167L13.3294 0.571429H12.8456H10.514H10.1343L10.0885 0.948334L9.71794 4H7.52108L7.87913 1.05167L7.93745 0.571429H7.45368H5.12203H4.74235L4.69658 0.948334L4.32599 4H1.70782H1.27925V4.42857V6.76429V7.19286H1.70782H3.94909L3.61986 9.80714H1H0.571429V10.2357V12.5714V13H1H3.24343L2.88539 15.9483L2.82707 16.4286H3.31083H5.64249H6.02216L6.06793 16.0517L6.43853 13H8.63538L8.27734 15.9483L8.21902 16.4286H8.70278H11.0553H11.4349L11.4807 16.0517L11.8513 13H14.4486H14.8772V12.5714V10.2357V9.80714H14.4486H12.2253L12.5389 7.19286H15.1565H15.5889L15.585 6.76047L15.5642 4.42475L15.5623 4.21429H15.7129H18.1989V16V16.4286H18.6274H22H22.4286V16V1V0.571429H22H15.7129H15.2843V1V3.78571V4H15.1356H12.913ZM6.81542 9.80714L7.14466 7.19286H9.34104L9.0118 9.80714H6.81542Z" stroke="#E62E59" stroke-width="0.857143"/>
</svg>
