<svg width="29" height="17" viewBox="0 0 29 17" fill="none" xmlns="http://www.w3.org/2000/svg">
<path d="M13.2346 4.19502L13.6013 1.30679L13.6626 0.824237H13.1762H10.7795H10.4019L10.3543 1.19883L9.97387 4.19502H7.69221L8.05893 1.30679L8.12019 0.824237H7.63377H5.23705H4.85945L4.81189 1.19883L4.43147 4.19502H1.72757H1.299V4.6236V6.91994V7.34852H1.72757H4.04217L3.70565 9.90429H1H0.571429V10.3329V12.6292V13.0578H1H3.31687L2.95016 15.946L2.88889 16.4286H3.37532H5.77203H6.14963L6.19719 16.054L6.57761 13.0578H8.85928L8.49256 15.946L8.43129 16.4286H8.91772H11.3358H11.7134L11.761 16.054L12.1414 13.0578H14.8239H15.2525V12.6292V10.3329V9.90429H14.8239H12.5277L12.8482 7.34852H15.5515H15.9841L15.98 6.91595L15.9586 4.6196L15.9549 4.22081L18.2906 5.70183L18.6306 5.91741L18.867 5.59157C19.1821 5.15724 19.5668 4.84143 20.0235 4.63486L20.0236 4.63496L20.032 4.63091C20.4954 4.40897 21.023 4.29374 21.623 4.29374C22.3588 4.29374 22.8376 4.44674 23.1297 4.68296L23.1361 4.68815L23.1427 4.69309C23.4316 4.90887 23.5912 5.22136 23.5912 5.69803C23.5912 6.02706 23.5054 6.37442 23.318 6.74429C23.1371 7.08736 22.7655 7.53881 22.1649 8.10264C22.1647 8.10285 22.1645 8.10305 22.1643 8.10326L16.388 13.4741L16.2512 13.6012V13.7879V16V16.4286H16.6798H28H28.4286V16V13.2191V12.7905H28H22.6494L25.2931 10.3333C25.2935 10.3329 25.294 10.3325 25.2944 10.3321C26.2938 9.41933 27.0025 8.57608 27.3795 7.80299C27.7511 7.04076 27.9364 6.22494 27.9364 5.36096C27.9364 4.3975 27.6789 3.5428 27.1512 2.81653C26.6428 2.08329 25.9265 1.53141 25.0233 1.1539C24.1313 0.761001 23.1013 0.571429 21.944 0.571429C20.5647 0.571429 19.3235 0.827018 18.2303 1.34975C17.1408 1.85664 16.273 2.57152 15.6411 3.49712L15.3911 3.86328L15.7655 4.10071L15.9143 4.19502H15.5301H13.2346ZM6.96691 9.90429L7.30343 7.34852H9.58458L9.24806 9.90429H6.96691Z" stroke="#E62E59" stroke-width="0.857143"/>
</svg>
