<svg width="32" height="17" viewBox="0 0 32 17" fill="none" xmlns="http://www.w3.org/2000/svg">
<path d="M13.4235 4L13.7972 1.05393L13.8584 0.571429H13.372H10.9368H10.5591L10.5116 0.946074L10.1242 4H7.79196L8.16563 1.05393L8.22683 0.571429H7.74047H5.3052H4.92755L4.88004 0.946073L4.49269 4H1.73928H1.31071V4.42857V6.76429V7.19286H1.73928H4.09903L3.75516 9.80714H1H0.571429V10.2357V12.5714V13H1H3.36203L2.98836 15.9461L2.92716 16.4286H3.41352H5.84879H6.22643L6.27395 16.0539L6.6613 13H8.99358L8.61991 15.9461L8.55871 16.4286H9.04507H11.5021H11.8797L11.9272 16.0539L12.3146 13H15.0463H15.4748V12.5714V10.2357V9.80714H15.0463H12.7052L13.0327 7.19286H15.7855H16.2181L16.2141 6.7603L16.1923 4.42458L16.1884 4H15.7638H13.4235ZM31 13.2786H31.4286V12.85V10.0214V9.59286H31H28.9498V7.21429V6.78571H28.5212H25.1945H24.7659V7.21429V9.59286H21.9553L28.1051 1.25438L28.6088 0.571429H27.7602H24.0638H23.8503L23.7217 0.741946L16.5463 10.2562L16.4599 10.3708V10.5143V12.85V13.2786H16.8885H24.6572V16V16.4286H25.0858H28.5212H28.9498V16V13.2786H31ZM7.05496 9.80714L7.39882 7.19286H9.73058L9.38671 9.80714H7.05496Z" stroke="#E62E59" stroke-width="0.857143"/>
</svg>
