<svg width="29" height="17" viewBox="0 0 29 17" fill="none" xmlns="http://www.w3.org/2000/svg">
<path d="M13.291 3.94222L13.6595 1.05424L13.7211 0.571429H13.2344H10.8262H10.4488L10.4011 0.945764L10.0188 3.94222H7.72215L8.09059 1.05424L8.15218 0.571429H7.66546H5.2573H4.87993L4.83217 0.945764L4.4499 3.94222H1.73105H1.30248V4.37079V6.66714V7.09571H1.73105H4.05874L3.72061 9.65148H1H0.571429V10.0801V12.3764V12.805H1H3.32998L2.96154 15.693L2.89995 16.1758H3.38667H5.79483H6.1722L6.21996 15.8014L6.60223 12.805H8.89886L8.53043 15.693L8.46883 16.1758H8.95555H11.3852H11.7626L11.8103 15.8014L12.1926 12.805H14.89H15.3185V12.3764V10.0801V9.65148H14.89H12.5807L12.9028 7.09571H15.621H16.0536L16.0496 6.66312L16.0281 4.36677L16.0241 3.94222H15.5995H13.291ZM22.2202 4.16734L19.7692 6.88577L19.6589 7.00807V7.17275V9.42697V9.85554H20.0875H21.6786C22.5853 9.85554 23.1915 10.0038 23.5592 10.2404C23.8945 10.456 24.0667 10.7664 24.0667 11.2388C24.0667 11.6984 23.8881 12.035 23.5071 12.2922C23.0998 12.5531 22.5044 12.7063 21.6786 12.7063C20.9331 12.7063 20.2015 12.6003 19.4826 12.3881C18.7788 12.1622 18.1634 11.8527 17.632 11.4622L17.2284 11.1656L16.9978 11.6103L15.6432 14.2227L15.4711 14.5546L15.7766 14.7701C16.541 15.3094 17.4554 15.7214 18.5113 16.0128L18.5113 16.0129L18.5181 16.0146C19.585 16.2905 20.6674 16.4286 21.7646 16.4286C23.1691 16.4286 24.3815 16.2044 25.3851 15.7357C26.3883 15.2738 27.1611 14.6496 27.6729 13.8505L27.6749 13.8473C28.1762 13.0492 28.4286 12.1767 28.4286 11.2388C28.4286 10.0306 28.0426 8.99585 27.2595 8.16513C26.6218 7.47725 25.7703 7.00707 24.73 6.73639L27.6312 3.49805L27.7405 3.37597V3.21208V1V0.571429H27.312H16.7762H16.3476V1V3.73876V4.16734H16.7762H22.2202ZM7.33152 7.09571H9.62763L9.2895 9.65148H6.99339L7.33152 7.09571Z" stroke="#E62E59" stroke-width="0.857143"/>
</svg>
