<svg width="31" height="17" viewBox="0 0 31 17" fill="none" xmlns="http://www.w3.org/2000/svg">
<path d="M13.5806 4.13496L13.9567 1.30507L14.0211 0.820047H13.5318H11.0651H10.6897L10.6403 1.19217L10.2492 4.13496H7.87634L8.25238 1.30507L8.31682 0.820047H7.82754H5.36081H4.98542L4.93598 1.19217L4.54494 4.13496H1.74883H1.32026V4.56354V6.82182V7.25039H1.74883H4.14233L3.79794 9.7496H1H0.571429V10.1782V12.4365V12.865H1H3.3959L3.01986 15.6949L2.95541 16.18H3.4447H5.91142H6.28681L6.33626 15.8078L6.7273 12.865H9.1002L8.72416 15.6949L8.65971 16.18H9.149H11.6377H12.0131L12.0626 15.8078L12.4536 12.865H15.2277H15.6563V12.4365V10.1782V9.7496H15.2277H12.853L13.181 7.25039H15.9765H16.4093L16.4051 6.81764L16.3831 4.55936L16.3789 4.13496H15.9545H13.5806ZM21.4234 7.00406C21.5897 6.1974 21.9252 5.57936 22.4089 5.12431C23.0746 4.49817 23.9949 4.16338 25.2207 4.16338C26.3222 4.16338 27.1987 4.39278 27.8766 4.82204L28.266 5.06854L28.4836 4.66241L29.8051 2.19694L29.9979 1.83732L29.6481 1.62714C29.0714 1.28051 28.3804 1.02464 27.5847 0.851498C26.8023 0.664304 25.9846 0.571429 25.1326 0.571429C23.5197 0.571429 22.078 0.886656 20.8191 1.52996L20.8171 1.53096C19.5669 2.17784 18.5884 3.12866 17.8876 4.37406C17.1836 5.62497 16.8414 7.10959 16.8414 8.81077C16.8414 11.192 17.4718 13.0888 18.7919 14.4354C20.1097 15.7795 21.9194 16.4286 24.1636 16.4286C25.3017 16.4286 26.3452 16.2258 27.2871 15.8123L27.2898 15.8111C28.249 15.3821 29.0173 14.7686 29.5799 13.9672C30.1486 13.1571 30.4286 12.2201 30.4286 11.1727C30.4286 10.1964 30.1718 9.32268 29.6484 8.56804C29.1321 7.80978 28.4315 7.2294 27.5588 6.82638C26.6892 6.4248 25.7313 6.22751 24.6921 6.22751C23.4168 6.22751 22.3191 6.47894 21.4234 7.00406ZM25.548 12.578L25.548 12.578L25.543 12.5821C25.1678 12.8909 24.6554 13.0645 23.9653 13.0645C23.1949 13.0645 22.6417 12.8806 22.2562 12.5619C21.8714 12.2438 21.6849 11.8476 21.6849 11.3384C21.6849 10.8341 21.8747 10.4387 22.2734 10.1188L22.2734 10.1188L22.2789 10.1143C22.6866 9.77591 23.2223 9.59155 23.9213 9.59155C24.6419 9.59155 25.1649 9.77248 25.5373 10.09L25.5372 10.0901L25.548 10.0988C25.9228 10.3979 26.1136 10.7954 26.1136 11.3384C26.1136 11.8814 25.9228 12.2789 25.548 12.578ZM7.1299 9.7496L7.4743 7.25039H9.84663L9.50224 9.7496H7.1299Z" stroke="#E62E59" stroke-width="0.857143"/>
</svg>
