<svg width="29" height="17" viewBox="0 0 29 17" fill="none" xmlns="http://www.w3.org/2000/svg">
<path d="M13.1787 3.94222L13.5437 1.05373L13.6047 0.571429H13.1185H10.7332H10.3553L10.308 0.94627L9.92939 3.94222H7.66255L8.02756 1.05373L8.08851 0.571429H7.60237H5.217H4.83918L4.79181 0.94627L4.41322 3.94222H1.72413H1.29556V4.37079V6.66714V7.09571H1.72413H4.02577L3.69083 9.65148H1H0.571429V10.0801V12.3764V12.805H1H3.3039L2.93888 15.6935L2.87794 16.1758H3.36407H5.74945H6.12727L6.17464 15.8009L6.55323 12.805H8.82007L8.45506 15.6935L8.39411 16.1758H8.88025H11.2869H11.6647L11.7121 15.8009L12.0907 12.805H14.7585H15.1871V12.3764V10.0801V9.65148H14.7585H12.4751L12.7941 7.09571H15.4826H15.9152L15.9112 6.66316L15.8899 4.36681L15.8859 3.94222H15.4613H13.1787ZM21.8449 6.11216H21.0968L21.2594 4.16734H27.0842H27.5128V3.73876V1V0.571429H27.0842H17.99H17.5991L17.5632 0.960581L16.7965 9.26114L16.7532 9.72913H17.2232H21.0356C22.3046 9.72913 23.0901 9.89456 23.4902 10.1474L23.4901 10.1474L23.4946 10.1502C23.8894 10.3929 24.0786 10.73 24.0786 11.2177C24.0786 11.6805 23.8997 12.0178 23.5211 12.2745C23.1202 12.5465 22.5336 12.7063 21.7171 12.7063C20.9792 12.7063 20.2628 12.6004 19.5666 12.3888C18.8697 12.1631 18.2603 11.8537 17.7342 11.4634L17.331 11.1643L17.0988 11.6093L15.7358 14.2217L15.5631 14.5525L15.8671 14.769C16.6247 15.3086 17.5311 15.7209 18.5778 16.0126L18.5777 16.0126L18.5845 16.0144C19.642 16.2904 20.7149 16.4286 21.8023 16.4286C23.2084 16.4286 24.4182 16.2043 25.4141 15.7345L25.4166 15.7333C26.4118 15.256 27.1767 14.6165 27.6824 13.8036L27.6843 13.8005C28.181 12.9868 28.4286 12.0875 28.4286 11.1124C28.4286 9.60385 27.8747 8.36946 26.7611 7.45358C25.6549 6.53194 23.9875 6.11216 21.8449 6.11216ZM6.94068 9.65148L7.27561 7.09571H9.54194L9.20701 9.65148H6.94068Z" stroke="#E62E59" stroke-width="0.857143"/>
</svg>
