<svg width="23" height="22" viewBox="0 0 23 22" fill="none" xmlns="http://www.w3.org/2000/svg">
<path d="M15.7782 0.221313H7.06051C5.35848 0.223368 3.72675 0.90061 2.52323 2.10449C1.31972 3.30836 0.642679 4.94058 0.640625 6.64312V15.357C0.642679 17.0595 1.31972 18.6917 2.52323 19.8956C3.72675 21.0995 5.35848 21.7767 7.06051 21.7788H15.7782C17.4802 21.7767 19.1119 21.0995 20.3155 19.8956C21.519 18.6917 22.196 17.0595 22.1981 15.357V6.64312C22.196 4.94058 21.519 3.30836 20.3155 2.10449C19.1119 0.90061 17.4802 0.223368 15.7782 0.221313ZM20.0309 15.357C20.0306 16.485 19.5824 17.5667 18.7849 18.3642C17.9874 19.1617 16.9059 19.6097 15.7782 19.6097H7.06051C5.93261 19.6097 4.8509 19.1615 4.05336 18.3637C3.25581 17.5659 2.80775 16.4839 2.80775 15.3557V6.64312C2.8081 5.51511 3.25631 4.43341 4.05381 3.63591C4.85132 2.8384 5.93283 2.39039 7.06051 2.39039H15.7782C16.9061 2.39039 17.9878 2.83858 18.7853 3.63636C19.5829 4.43415 20.0309 5.51618 20.0309 6.64442V15.3634V15.357Z" fill="#E62E59"/>
<path d="M11.4193 5.61068C10.3534 5.61068 9.31145 5.92676 8.42517 6.51895C7.5389 7.11114 6.84814 7.95283 6.44023 8.93761C6.03232 9.92239 5.9256 11.006 6.13355 12.0515C6.3415 13.0969 6.85477 14.0572 7.60849 14.8109C8.36221 15.5646 9.3225 16.0779 10.3679 16.2858C11.4134 16.4938 12.497 16.3871 13.4818 15.9792C14.4666 15.5712 15.3082 14.8805 15.9004 13.9942C16.4926 13.1079 16.8087 12.066 16.8087 11C16.8087 9.57069 16.2409 8.19988 15.2302 7.18918C14.2195 6.17848 12.8487 5.61068 11.4193 5.61068ZM11.4193 14.2927C10.7681 14.2927 10.1315 14.0996 9.59004 13.7378C9.04856 13.376 8.62653 12.8617 8.37732 12.2601C8.1281 11.6584 8.06291 10.9964 8.18996 10.3577C8.31701 9.71896 8.6306 9.13227 9.09109 8.67178C9.55158 8.21129 10.1383 7.89769 10.777 7.77065C11.4157 7.6436 12.0777 7.70879 12.6794 7.958C13.281 8.20722 13.7953 8.62925 14.1571 9.17072C14.5189 9.7122 14.712 10.3488 14.712 11C14.712 11.8733 14.3651 12.7108 13.7476 13.3283C13.1301 13.9458 12.2926 14.2927 11.4193 14.2927Z" fill="#E62E59"/>
</svg>
