<svg width="21" height="22" viewBox="0 0 21 22" fill="none" xmlns="http://www.w3.org/2000/svg">
<path d="M3.03453 0.670166C2.50157 0.670166 1.98058 0.828206 1.53744 1.1243C1.0943 1.4204 0.748919 1.84125 0.544965 2.33364C0.341011 2.82603 0.287648 3.36784 0.391622 3.89055C0.495597 4.41327 0.752241 4.89341 1.1291 5.27027C1.50596 5.64713 1.9861 5.90377 2.50882 6.00775C3.03154 6.11172 3.57335 6.05836 4.06574 5.85441C4.55812 5.65045 4.97897 5.30507 5.27507 4.86193C5.57117 4.41879 5.72921 3.8978 5.72921 3.36485C5.72921 2.65017 5.4453 1.96477 4.93995 1.45942C4.4346 0.954069 3.7492 0.670166 3.03453 0.670166Z" fill="#E62E59"/>
<path d="M5.35688 7.85642H0.712165C0.61342 7.85642 0.518719 7.89018 0.448895 7.95028C0.379071 8.01038 0.339844 8.09189 0.339844 8.17689V21.0094C0.339844 21.0944 0.379071 21.1759 0.448895 21.236C0.518719 21.2961 0.61342 21.3298 0.712165 21.3298H5.35688C5.45563 21.3298 5.55033 21.2961 5.62016 21.236C5.68998 21.1759 5.72921 21.0944 5.72921 21.0094V8.17689C5.72921 8.09189 5.68998 8.01038 5.62016 7.95028C5.55033 7.89018 5.45563 7.85642 5.35688 7.85642Z" fill="#E62E59"/>
<path d="M15.7405 6.95921C15.0654 6.94531 14.3948 7.0747 13.7721 7.33904C13.1494 7.60337 12.5884 7.99679 12.1252 8.49393V7.6258C12.1252 7.53725 12.0905 7.45232 12.0286 7.3897C11.9667 7.32708 11.8827 7.29191 11.7952 7.29191H7.85571C7.76818 7.29191 7.68423 7.32708 7.62233 7.3897C7.56043 7.45232 7.52566 7.53725 7.52566 7.6258V20.9959C7.52566 21.0845 7.56043 21.1694 7.62233 21.232C7.68423 21.2946 7.76818 21.3298 7.85571 21.3298H11.9614C12.0489 21.3298 12.1329 21.2946 12.1948 21.232C12.2567 21.1694 12.2914 21.0845 12.2914 20.9959V14.3812C12.2914 12.1525 12.8903 11.2808 14.4262 11.2808C16.0989 11.2808 16.2321 12.6724 16.2321 14.4933V20.9935C16.2321 21.0821 16.2669 21.167 16.3288 21.2296C16.3907 21.2923 16.4746 21.3274 16.5622 21.3274H20.669C20.7565 21.3274 20.8405 21.2923 20.9024 21.2296C20.9643 21.167 20.9991 21.0821 20.9991 20.9935V13.6598C20.9991 10.3447 20.3743 6.95921 15.7405 6.95921Z" fill="#E62E59"/>
</svg>
