<svg width="176" height="35" viewBox="0 0 176 35" fill="none" xmlns="http://www.w3.org/2000/svg">
<g clip-path="url(#clip0_2506_326)">
<path d="M170.413 0H147.858C144.772 0 142.27 2.50245 142.27 5.58937V28.9438C142.27 32.0307 144.772 34.5332 147.858 34.5332H170.413C173.499 34.5332 176.001 32.0307 176.001 28.9438V5.58937C176.001 2.50245 173.499 0 170.413 0Z" fill="#E62E59"/>
<path d="M0 27.9615L4.36022 5.51514H19.3004L18.5952 9.17072H7.88689L6.82921 14.622H15.0369V18.2776H6.12396L4.96965 24.2739H15.9983L15.293 27.9615H0Z" fill="white"/>
<path d="M18.2113 27.9615L21.3535 11.8001H25.2968L24.816 14.3333C25.9062 12.698 27.7657 11.5435 30.0419 11.5435C32.6067 11.5435 34.1455 12.698 34.4662 14.622C35.5243 12.9546 37.8646 11.5435 40.237 11.5435C43.8599 11.5435 45.6232 14.2049 44.9179 17.8926L42.9622 27.9615H39.0506L40.846 18.6942C41.2946 16.3215 40.3969 14.8782 38.5053 14.8782C36.3896 14.8782 34.7862 16.4177 34.3696 18.6942L32.5421 27.9615H28.6306L30.426 18.6942C30.875 16.3215 30.0094 14.8782 28.1178 14.8782C26.0016 14.8782 24.3986 16.4177 23.95 18.6942L22.1546 27.9615H18.2109H18.2113Z" fill="white"/>
<path d="M45.4258 34.503L49.8502 11.8003H53.7617L53.3772 13.8206C54.6274 12.442 56.519 11.5437 58.6672 11.5437C62.8671 11.5437 65.5602 15.1993 64.5983 20.0731C63.7006 24.8191 60.4306 28.218 55.6534 28.218C53.6013 28.218 51.678 27.4164 50.9728 26.1977L49.3378 34.503H45.4262H45.4258ZM60.6547 19.8169C61.1996 16.9308 59.7249 14.8785 57.1922 14.9106C54.6594 14.9426 52.4795 17.0592 51.9342 19.9448C51.4214 22.8309 52.8961 24.8828 55.493 24.8507C57.9616 24.8187 60.1419 22.7025 60.6547 19.8165V19.8169Z" fill="white"/>
<path d="M78.5463 15.1032H75.6928C73.1921 15.1032 71.7812 17.2518 71.2043 20.3299L69.6976 27.9615H65.7539L68.8957 11.8H72.8393L72.2624 14.654C73.5129 12.6017 74.8913 11.8 76.975 11.8H78.5459V15.1027L78.5463 15.1032Z" fill="white"/>
<path d="M93.9991 19.3357C93.9354 19.4961 93.7425 20.426 93.6467 20.6827H81.7841C81.7199 23.3442 83.1304 24.9474 85.7598 24.9474C87.7156 24.9474 88.8378 24.0495 89.5106 22.5746H93.4542C92.3966 25.9094 89.094 28.218 85.1508 28.218C79.7646 28.218 77.4243 24.0174 78.1937 19.464C78.9952 14.7502 82.8105 11.5437 87.4915 11.5437C92.1725 11.5437 94.8976 14.8785 93.9995 19.3357H93.9991ZM90.28 18.0853C90.5366 16.033 89.3502 14.4939 86.9137 14.4939C84.7338 14.4939 83.0667 15.7126 82.2648 18.0853H90.28Z" fill="white"/>
<path d="M95.1544 22.5744H98.7452C98.6811 24.0814 100.027 25.0755 101.791 25.0755C103.362 25.0755 104.516 24.3059 104.548 23.1835C104.58 20.2333 96.6615 22.5423 96.7894 16.8023C96.8215 13.8204 100.156 11.5435 103.619 11.5435C107.338 11.5435 109.838 13.7237 109.55 16.7381H105.959C105.959 15.4232 104.708 14.4937 103.202 14.4937C101.695 14.4937 100.637 15.2311 100.605 16.3856C100.541 19.3038 108.62 16.4177 108.524 22.6065C108.492 25.9092 105.478 28.2182 101.374 28.2182C97.5272 28.2182 94.834 25.7171 95.1548 22.5748L95.1544 22.5744Z" fill="white"/>
<path d="M116.664 6.92619H120.575L119.614 11.8H123.846V15.1027H119.004L117.658 21.9327C117.337 23.568 118.043 24.4017 119.517 24.4017H121.697L120.992 27.961H118.395C114.869 27.961 112.945 25.9087 113.65 22.3173L115.061 15.1023H112.207V11.7996H115.702L116.663 6.92578L116.664 6.92619Z" fill="white"/>
<path d="M140.163 19.3357C140.099 19.4961 139.907 20.426 139.81 20.6827H127.948C127.884 23.3442 129.295 24.9474 131.923 24.9474C133.879 24.9474 135.001 24.0495 135.675 22.5746H139.618C138.561 25.9094 135.258 28.218 131.315 28.218C125.929 28.218 123.588 24.0174 124.358 19.464C125.159 14.7502 128.974 11.5437 133.655 11.5437C138.336 11.5437 141.061 14.8785 140.164 19.3357H140.163ZM136.444 18.0853C136.701 16.033 135.514 14.4939 133.078 14.4939C130.897 14.4939 129.23 15.7126 128.429 18.0853H136.444Z" fill="white"/>
<path d="M144.641 23.5669H147.305C148.789 23.5669 149.486 22.6885 149.849 20.8408L152.757 5.84814H156.754L153.816 20.9923C153.029 25.0812 150.667 27.0499 147.336 27.0499H144.641V23.5669Z" fill="white"/>
<path d="M156.364 19.4173C157.272 14.753 160.603 11.5425 165.115 11.5425C167.084 11.5425 168.568 12.3904 169.173 13.6326L169.536 11.7849H173.231L170.264 27.0501H166.569L166.932 25.1724C165.933 26.3537 164.025 27.2925 162.087 27.2925C158.029 27.2925 155.515 23.8396 156.364 19.4177V19.4173ZM168.295 19.4173C168.84 16.6003 167.568 14.753 165.085 14.753C162.602 14.753 160.603 16.6007 160.058 19.4173C159.513 22.2339 160.815 24.0816 163.267 24.0816C165.72 24.0816 167.75 22.2339 168.294 19.4173H168.295Z" fill="white"/>
<path d="M170.009 8.2882L161.312 10.0161L160.43 7.84435L169.126 6.11646L170.009 8.2882Z" fill="white"/>
</g>
<defs>
<clipPath id="clip0_2506_326">
<rect width="176" height="34.5332" fill="white"/>
</clipPath>
</defs>
</svg>
