<svg width="40" height="40" viewBox="0 0 40 40" fill="none" xmlns="http://www.w3.org/2000/svg">
<path d="M16.5938 27.6562L20.0938 22.9688L25.1875 29.8438H26.75L33.5312 38.75H24.7813L16.5938 27.6562Z" fill="white"/>
<path d="M24.375 28.9062L26.3438 26.25L35.7188 38.75H33.5313L26.75 30H25.1875L24.375 28.9062Z" fill="#FFEDF1"/>
<path d="M35.75 15.625H23.2188V7.5H35.75L32.6562 11.5625L35.75 15.625Z" fill="white"/>
<path d="M24.1562 15.625H27.9375H35.75L32.6562 11.5625L35.75 7.5H24.1562V15.625Z" fill="#E62E59"/>
<path d="M20.0938 4.375H29.5V12.5H20.0938V4.375Z" fill="white"/>
<path d="M6.03125 38.75L15.4062 26.25L24.7813 38.75" fill="white"/>
<path d="M24.7813 38.75L15.4063 26.25L13.0625 29.375H15.25V30.9375H17.4375L18.5313 38.75" fill="#FFEDF1"/>
<path d="M24.7798 39.6875C24.4985 39.6875 24.2173 39.5625 24.0298 39.3125L15.4048 27.8125L6.77976 39.3125C6.46726 39.7187 5.87351 39.8125 5.46726 39.5C5.06101 39.1875 4.96726 38.5937 5.27976 38.1875L14.6548 25.6875C14.8423 25.4375 15.1235 25.3125 15.4048 25.3125C15.686 25.3125 15.9673 25.4375 16.1548 25.6875L25.5298 38.1875C25.8423 38.5937 25.7485 39.1875 25.3423 39.5C25.186 39.625 24.9985 39.6875 24.7798 39.6875ZM25.186 30.9375C24.9048 30.9375 24.6235 30.8125 24.436 30.5625L20.0923 24.6875L19.686 25.2187C19.3735 25.625 18.7798 25.6875 18.3735 25.375C17.9673 25.0625 17.9048 24.4687 18.2173 24.0625L19.4048 22.5625C19.5923 22.3437 19.8735 22.1875 20.1548 22.2187C20.436 22.2187 20.7173 22.375 20.9048 22.5938L25.9673 29.4688C26.2798 29.875 26.186 30.4687 25.7798 30.7812C25.561 30.875 25.3735 30.9375 25.186 30.9375ZM35.7173 39.6875C35.436 39.6875 35.1548 39.5625 34.9673 39.3125L25.5923 26.8125C25.2798 26.4063 25.3735 25.8125 25.7798 25.5C26.186 25.1875 26.7798 25.2812 27.0923 25.6875L36.4673 38.1875C36.7798 38.5937 36.686 39.1875 36.2798 39.5C36.1235 39.625 35.936 39.6875 35.7173 39.6875Z" fill="#041F4F"/>
<path d="M20.0938 24.0625C19.5625 24.0625 19.1562 23.6562 19.1562 23.125V4.375C19.1562 3.84375 19.5625 3.4375 20.0938 3.4375H29.5C30.0312 3.4375 30.4375 3.84375 30.4375 4.375V12.5C30.4375 13.0312 30.0312 13.4375 29.5 13.4375C28.9688 13.4375 28.5625 13.0312 28.5625 12.5V5.3125H21.0313V23.125C21.0313 23.6562 20.625 24.0625 20.0938 24.0625Z" fill="#041F4F"/>
<path d="M29.5 13.4375H23.2188C22.6875 13.4375 22.2812 13.0312 22.2812 12.5C22.2812 11.9688 22.6875 11.5625 23.2188 11.5625H29.5C30.0313 11.5625 30.4375 11.9688 30.4375 12.5C30.4375 13.0312 30.0313 13.4375 29.5 13.4375Z" fill="#041F4F"/>
<path d="M35.7812 16.5625H24.8437C24.3125 16.5625 23.9062 16.1562 23.9062 15.625C23.9062 15.0938 24.3125 14.6875 24.8437 14.6875H33.875L31.9062 12.125C31.6562 11.7812 31.6562 11.3125 31.9062 10.9687L33.875 8.40625H32.6562C32.125 8.40625 31.7187 8 31.7187 7.46875C31.7187 6.9375 32.125 6.53125 32.6562 6.53125H35.7812C36.125 6.53125 36.4687 6.71875 36.625 7.0625C36.7812 7.40625 36.75 7.75 36.5312 8.0625L33.8125 11.5625L36.5 15.0625C36.7188 15.3438 36.75 15.7188 36.5937 16.0625C36.4375 16.4063 36.125 16.5625 35.7812 16.5625Z" fill="#041F4F"/>
</svg>
