<svg width="57" height="56" viewBox="0 0 57 56" fill="none" xmlns="http://www.w3.org/2000/svg">
<path d="M47.6403 0H10.1956C5.07169 0 0.917969 4.05804 0.917969 9.06389V46.9361C0.917969 51.942 5.07169 56 10.1956 56H47.6403C52.7642 56 56.918 51.942 56.918 46.9361V9.06389C56.918 4.05804 52.7642 0 47.6403 0Z" fill="#E62E59"/>
<path d="M16.9193 16C16.1833 16 15.5859 16.5973 15.5859 17.3333V30.6667C15.5859 31.4027 16.1833 32 16.9193 32H40.9193C41.6553 32 42.2526 31.4027 42.2526 30.6667V17.3333C42.2526 16.5973 41.6553 16 40.9193 16H16.9193ZM18.9981 19.4121C19.3749 19.0354 19.8248 18.6667 20.3577 18.6667H37.4809C38.0137 18.6667 38.4637 19.0354 38.8405 19.4121C39.2172 19.7889 39.5859 20.2389 39.5859 20.7717V27.2283C39.5859 27.7611 39.2172 28.2111 38.8405 28.5879C38.4637 28.9646 38.0137 29.3333 37.4809 29.3333H20.3577C19.8248 29.3333 19.3749 28.9646 18.9981 28.5879C18.6213 28.2111 18.2526 27.7611 18.2526 27.2283V20.7717C18.2526 20.2389 18.6213 19.7889 18.9981 19.4121ZM28.9193 20C27.8584 20 26.841 20.4214 26.0908 21.1716C25.3407 21.9217 24.9193 22.9391 24.9193 24C24.9193 25.0609 25.3407 26.0783 26.0908 26.8284C26.841 27.5786 27.8584 28 28.9193 28C29.9801 28 30.9976 27.5786 31.7477 26.8284C32.4978 26.0783 32.9193 25.0609 32.9193 24C32.9193 22.9391 32.4978 21.9217 31.7477 21.1716C30.9976 20.4214 29.9801 20 28.9193 20ZM22.2526 22.6667C21.5166 22.6667 20.9193 23.2627 20.9193 24C20.9193 24.7373 21.5166 25.3333 22.2526 25.3333C22.9886 25.3333 23.5859 24.7373 23.5859 24C23.5859 23.2627 22.9886 22.6667 22.2526 22.6667ZM35.5859 22.6667C34.8499 22.6667 34.2526 23.2627 34.2526 24C34.2526 24.7373 34.8499 25.3333 35.5859 25.3333C36.3219 25.3333 36.9193 24.7373 36.9193 24C36.9193 23.2627 36.3219 22.6667 35.5859 22.6667ZM28.6522 34.6667C27.0871 34.6667 26.8015 36.8966 28.316 37.291L38.5573 39.9583C39.2706 40.1437 39.997 39.7146 40.1823 39.0026L40.8771 36.3371C41.0974 35.492 40.4596 34.6667 39.5863 34.6667H39.206C38.8238 34.6667 38.4896 34.9244 38.3926 35.2941C38.3024 35.6378 37.9975 35.8716 37.6682 36.0049C37.5778 36.0415 37.4903 36.0847 37.4064 36.134C36.9488 36.403 36.4226 36.6451 35.9089 36.5113L28.9882 34.7097C28.8784 34.6811 28.7655 34.6667 28.6522 34.6667Z" fill="white"/>
</svg>
