<svg width="56" height="56" viewBox="0 0 56 56" fill="none" xmlns="http://www.w3.org/2000/svg">
<path d="M46.7224 0H9.2776C4.15372 0 0 4.05804 0 9.06389V46.9361C0 51.942 4.15372 56 9.2776 56H46.7224C51.8463 56 56 51.942 56 46.9361V9.06389C56 4.05804 51.8463 0 46.7224 0Z" fill="#041F4F"/>
<path d="M16.0013 16C15.2653 16 14.668 16.5973 14.668 17.3333V30.6667C14.668 31.4027 15.2653 32 16.0013 32H40.0013C40.7373 32 41.3346 31.4027 41.3346 30.6667V17.3333C41.3346 16.5973 40.7373 16 40.0013 16H16.0013ZM18.0801 19.4121C18.4569 19.0354 18.9068 18.6667 19.4397 18.6667H36.5629C37.0958 18.6667 37.5457 19.0354 37.9225 19.4121C38.2993 19.7889 38.668 20.2389 38.668 20.7717V27.2283C38.668 27.7611 38.2993 28.2111 37.9225 28.5879C37.5457 28.9646 37.0958 29.3333 36.5629 29.3333H19.4397C18.9068 29.3333 18.4569 28.9646 18.0801 28.5879C17.7033 28.2111 17.3346 27.7611 17.3346 27.2283V20.7717C17.3346 20.2389 17.7033 19.7889 18.0801 19.4121ZM28.0013 20C26.9404 20 25.923 20.4214 25.1729 21.1716C24.4227 21.9217 24.0013 22.9391 24.0013 24C24.0013 25.0609 24.4227 26.0783 25.1729 26.8284C25.923 27.5786 26.9404 28 28.0013 28C29.0622 28 30.0796 27.5786 30.8297 26.8284C31.5799 26.0783 32.0013 25.0609 32.0013 24C32.0013 22.9391 31.5799 21.9217 30.8297 21.1716C30.0796 20.4214 29.0622 20 28.0013 20ZM21.3346 22.6667C20.5986 22.6667 20.0013 23.2627 20.0013 24C20.0013 24.7373 20.5986 25.3333 21.3346 25.3333C22.0706 25.3333 22.668 24.7373 22.668 24C22.668 23.2627 22.0706 22.6667 21.3346 22.6667ZM34.668 22.6667C33.932 22.6667 33.3346 23.2627 33.3346 24C33.3346 24.7373 33.932 25.3333 34.668 25.3333C35.404 25.3333 36.0013 24.7373 36.0013 24C36.0013 23.2627 35.404 22.6667 34.668 22.6667ZM27.7342 34.6667C26.1692 34.6667 25.8835 36.8966 27.398 37.291L37.6393 39.9583C38.3527 40.1437 39.079 39.7146 39.2643 39.0026L39.9591 36.3371C40.1794 35.492 39.5417 34.6667 38.6683 34.6667H38.288C37.9058 34.6667 37.5717 34.9244 37.4746 35.2941C37.3844 35.6378 37.0796 35.8716 36.7502 36.0049C36.6598 36.0415 36.5723 36.0847 36.4884 36.134C36.0308 36.403 35.5047 36.6451 34.9909 36.5113L28.0702 34.7097C27.9605 34.6811 27.8476 34.6667 27.7342 34.6667Z" fill="white"/>
</svg>
