<svg width="16" height="16" viewBox="0 0 16 16" fill="none" xmlns="http://www.w3.org/2000/svg">
<path d="M7.50707 0.618114C7.50707 0.346454 7.72755 0.125977 7.99921 0.125977C8.27087 0.125977 8.49134 0.346454 8.49134 0.618114V7.50804H15.3813C15.6529 7.50804 15.8734 7.72852 15.8734 8.00018C15.8734 8.27184 15.6529 8.49232 15.3813 8.49232H8.49134V15.3822C8.49134 15.6539 8.27087 15.8744 7.99921 15.8744C7.72755 15.8744 7.50707 15.6539 7.50707 15.3822V8.49232H0.617138C0.345478 8.49232 0.125 8.27184 0.125 8.00018C0.125 7.72852 0.345478 7.50804 0.617138 7.50804H7.50707V0.618114Z" fill="#041F4F"/>
</svg>
