<svg width="40" height="40" viewBox="0 0 40 40" fill="none" xmlns="http://www.w3.org/2000/svg">
<path d="M20 20.5312V11.1562H24.375V21.7812L20 20.5312Z" fill="white"/>
<path d="M28.125 20.5312V4.90625H32.5V18.6562L28.125 20.5312Z" fill="white"/>
<path d="M12.1875 18.0312V15.8438H16.5625V18.9688L12.1875 18.0312Z" fill="white"/>
<path d="M38.7188 27.625C38.1562 26.375 36.625 25.875 35.375 26.4063L34.2812 26.875L34.0625 26.4375C33.5312 25.1562 32.0625 24.5625 30.7812 25.125L24.2812 27.9688C24.0312 27.5625 23.6562 27.25 23.1875 27.0313L15.125 23.4063C12 22 8.34375 22.4375 5.625 24.5313L4.40625 25.4688L4.09375 25.7813C2 25.7813 0.3125 27.4687 0.3125 29.5625V38.5938H4.0625V35.0938L4.34375 34.9375C5.375 34.3438 6.65625 34.3125 7.71875 34.8438L14.6562 38.3125C16.2812 39.0938 18.1562 39.1562 19.8438 38.4375L37.4688 31C38.7188 30.4375 39.3125 28.9063 38.7188 27.625Z" fill="white"/>
<path d="M39.625 27.3437C39.2812 26.5 38.5938 25.8437 37.75 25.5C36.9062 25.1562 35.9688 25.1562 35.125 25.5312L34.75 25.6875C34.375 25.0312 33.7812 24.5312 33.0938 24.25C32.25 23.9062 31.3125 23.9062 30.4688 24.2812L26.8438 25.8125C26.375 26 26.1562 26.5625 26.3438 27.0312C26.5 27.375 26.8438 27.5937 27.2188 27.5937C27.3438 27.5937 27.4688 27.5625 27.5938 27.5312L31.2188 26C31.5938 25.8437 32.0312 25.8437 32.4062 26C32.6562 26.0937 32.8438 26.25 33 26.4375L25.625 29.5312C25.6562 29.0312 25.5938 28.5312 25.4062 28.0625C25.0625 27.2187 24.4375 26.5312 23.5938 26.1562L15.5 22.5625C12.0625 21.0312 8.0625 21.5 5.03125 23.8125C3.84375 24.7812 3.125 26.2187 3.125 27.7812V37.6562H1.25C0.71875 37.6562 0.3125 38.0625 0.3125 38.5937C0.3125 39.125 0.71875 39.5312 1.25 39.5312H4.0625C4.59375 39.5312 5 39.125 5 38.5937V27.75C5 26.7812 5.4375 25.8437 6.1875 25.25C8.65625 23.375 11.9062 23 14.75 24.25L22.8125 27.875C23.1875 28.0312 23.5 28.3437 23.625 28.75C23.7812 29.125 23.75 29.5625 23.5938 29.9375C23.4375 30.3125 23.125 30.5937 22.75 30.75C22.375 30.9062 21.9375 30.875 21.5625 30.7187L15.3125 27.9375C14.8438 27.7187 14.2812 27.9375 14.0625 28.4062C13.8438 28.875 14.0625 29.4375 14.5312 29.6562L20.7812 32.4375C21.625 32.8125 22.5625 32.8437 23.4062 32.5C23.5312 32.4687 23.6562 32.4062 23.75 32.3437C23.8125 32.3437 23.8438 32.3125 23.875 32.3125L35.8125 27.25C36.1875 27.0937 36.625 27.0937 37 27.25C37.375 27.4062 37.6875 27.7187 37.8438 28.0937C38 28.4687 38 28.9062 37.8438 29.2812C37.6875 29.6562 37.375 29.9687 37 30.125L19.375 37.5625C17.9688 38.1562 16.3438 38.125 14.9688 37.4375L7.53125 33.8125C7.0625 33.5937 6.5 33.7812 6.28125 34.25C6.0625 34.7187 6.25 35.2812 6.71875 35.5L14.1562 39.125C15.1562 39.625 16.2188 39.8437 17.3125 39.8437C18.25 39.8437 19.2188 39.6562 20.125 39.2812L37.75 31.8437C38.5938 31.5 39.25 30.8125 39.5938 29.9687C39.9688 29.125 39.9688 28.1875 39.625 27.3437Z" fill="#041F4F"/>
<path d="M24.375 22.7187C23.8438 22.7187 23.4375 22.3125 23.4375 21.7812V12.0937H20.9375V20.5312C20.9375 21.0625 20.5312 21.4687 20 21.4687C19.4688 21.4687 19.0625 21.0625 19.0625 20.5312V11.1562C19.0625 10.625 19.4688 10.2188 20 10.2188H24.375C24.9062 10.2188 25.3125 10.625 25.3125 11.1562V21.7812C25.3125 22.2812 24.9062 22.7187 24.375 22.7187Z" fill="#E62E59"/>
<path d="M28.125 21.4687C27.5938 21.4687 27.1875 21.0625 27.1875 20.5312V4.90625C27.1875 4.375 27.5938 3.96875 28.125 3.96875H32.5C33.0312 3.96875 33.4375 4.375 33.4375 4.90625V18.6562C33.4375 19.1875 33.0312 19.5938 32.5 19.5938C31.9688 19.5938 31.5625 19.1875 31.5625 18.6562V5.84375H29.0625V20.5312C29.0625 21.0312 28.6562 21.4687 28.125 21.4687Z" fill="#E62E59"/>
<path d="M16.5625 19.9062C16.0312 19.9062 15.625 19.5 15.625 18.9688V16.7812H13.125V18.0312C13.125 18.5625 12.7188 18.9688 12.1875 18.9688C11.6562 18.9688 11.25 18.5625 11.25 18.0312V15.8438C11.25 15.3125 11.6562 14.9062 12.1875 14.9062H16.5625C17.0938 14.9062 17.5 15.3125 17.5 15.8438V18.9688C17.5 19.4688 17.0938 19.9062 16.5625 19.9062Z" fill="#E62E59"/>
</svg>
