<svg width="56" height="56" viewBox="0 0 56 56" fill="none" xmlns="http://www.w3.org/2000/svg">
<path d="M46.7224 0H9.2776C4.15372 0 0 4.05804 0 9.06389V46.9361C0 51.942 4.15372 56 9.2776 56H46.7224C51.8463 56 56 51.942 56 46.9361V9.06389C56 4.05804 51.8463 0 46.7224 0Z" fill="#E62E59"/>
<path d="M23 15C20.8067 15 19 16.8067 19 19C19 21.1933 20.8067 23 23 23C24.2482 23 25.3577 22.4033 26.0937 21.4948L26.7214 22.4896L24.6615 25.6667H16.3333C15.5973 25.6667 15 26.264 15 27V40.3333C15 41.0693 15.5973 41.6667 16.3333 41.6667H40.3333C41.0693 41.6667 41.6667 41.0693 41.6667 40.3333V27C41.6667 26.264 41.0693 25.6667 40.3333 25.6667H30.8203L29.1354 28.3333H37.7891C37.9904 28.8987 38.4347 29.3429 39 29.5443V37.7891C38.4347 37.9904 37.9904 38.4347 37.7891 39H18.8776C18.6763 38.4347 18.232 37.9904 17.6667 37.7891V29.5443C18.232 29.3429 18.6763 28.8987 18.8776 28.3333H22.9323L21.2031 31H24.3333L30.5521 21.4687C31.2877 22.3921 32.4065 23 33.6667 23C35.86 23 37.6667 21.1933 37.6667 19C37.6667 16.8067 35.86 15 33.6667 15C32.017 15 30.5898 16.0237 29.9818 17.4635L28.3177 20.026L26.7396 17.526L26.7109 17.5443C26.1223 16.0635 24.6793 15 23 15ZM23 17.6667C23.7522 17.6667 24.3333 18.2478 24.3333 19C24.3333 19.7522 23.7522 20.3333 23 20.3333C22.2478 20.3333 21.6667 19.7522 21.6667 19C21.6667 18.2478 22.2478 17.6667 23 17.6667ZM33.6667 17.6667C34.4188 17.6667 35 18.2478 35 19C35 19.7522 34.4188 20.3333 33.6667 20.3333C32.9145 20.3333 32.3333 19.7522 32.3333 19C32.3333 18.2478 32.9145 17.6667 33.6667 17.6667ZM28.3828 29.6719L26.6484 32.3333C26.1324 33.1853 25.3773 33.6573 24.3333 33.6667C24.3333 35.876 26.124 37.6667 28.3333 37.6667C30.5427 37.6667 32.3333 35.876 32.3333 33.6667C32.3333 31.4747 30.5681 29.6999 28.3828 29.6719ZM21.6667 32.3333C21.313 32.3333 20.9739 32.4738 20.7239 32.7239C20.4738 32.9739 20.3333 33.313 20.3333 33.6667C20.3333 34.0203 20.4738 34.3594 20.7239 34.6095C20.9739 34.8595 21.313 35 21.6667 35C22.0203 35 22.3594 34.8595 22.6095 34.6095C22.8595 34.3594 23 34.0203 23 33.6667C23 33.313 22.8595 32.9739 22.6095 32.7239C22.3594 32.4738 22.0203 32.3333 21.6667 32.3333ZM35 32.3333C34.6464 32.3333 34.3072 32.4738 34.0572 32.7239C33.8071 32.9739 33.6667 33.313 33.6667 33.6667C33.6667 34.0203 33.8071 34.3594 34.0572 34.6095C34.3072 34.8595 34.6464 35 35 35C35.3536 35 35.6928 34.8595 35.9428 34.6095C36.1929 34.3594 36.3333 34.0203 36.3333 33.6667C36.3333 33.313 36.1929 32.9739 35.9428 32.7239C35.6928 32.4738 35.3536 32.3333 35 32.3333Z" fill="white"/>
</svg>
