<svg width="32" height="32" viewBox="0 0 32 32" fill="none" xmlns="http://www.w3.org/2000/svg">
<path d="M3.9974 6.66663C3.2614 6.66663 2.66406 7.26396 2.66406 7.99996V21.3333C2.66406 22.0693 3.2614 22.6666 3.9974 22.6666H17.3307V20H6.54688C6.44739 19.7196 6.28659 19.4649 6.0762 19.2545C5.86582 19.0441 5.61114 18.8833 5.33073 18.7838V10.5494C5.61114 10.45 5.86582 10.2892 6.0762 10.0788C6.28659 9.86838 6.44739 9.6137 6.54688 9.33329H25.4479C25.5474 9.6137 25.7082 9.86838 25.9186 10.0788C26.129 10.2892 26.3837 10.45 26.6641 10.5494V13.3333H29.3307V7.99996C29.3307 7.26396 28.7334 6.66663 27.9974 6.66663H3.9974ZM15.9635 10.6666C15.713 10.6686 15.4578 10.6944 15.1979 10.7448C13.6286 11.0488 12.3518 12.3407 12.0651 13.914C11.6038 16.454 13.5427 18.6666 15.9974 18.6666C16.4681 18.6666 16.9121 18.5712 17.3307 18.4218V15.7552C17.3307 14.4178 18.4153 13.3333 19.7526 13.3333C19.1984 11.7735 17.7174 10.6527 15.9635 10.6666ZM9.33073 13.3333C8.59473 13.3333 7.9974 13.9293 7.9974 14.6666C7.9974 15.404 8.59473 16 9.33073 16C10.0667 16 10.6641 15.404 10.6641 14.6666C10.6641 13.9293 10.0667 13.3333 9.33073 13.3333ZM19.9974 16V18.6666H21.3307V21.2187L24.112 24L21.3307 26.7812V29.3333H19.9974V32H31.9974V29.3333H30.6641V26.7812L27.8828 24L30.6641 21.2187V18.6666H31.9974V16H19.9974ZM23.9974 18.6666H27.9974V20.1145L25.9974 22.1145L23.9974 20.1145V18.6666ZM25.9974 25.8854L27.9974 27.8854V29.3333H23.9974V27.8854L25.9974 25.8854Z" fill="#E62E59"/>
</svg>
