<svg width="32" height="32" viewBox="0 0 32 32" fill="none" xmlns="http://www.w3.org/2000/svg">
<g clip-path="url(#clip0_2605_885)">
<path d="M7.9987 2.66669C6.53809 2.66669 5.33203 3.87275 5.33203 5.33335V26.6667C5.33203 28.1273 6.53809 29.3334 7.9987 29.3334H15.9987V26.6667H7.9987V5.33335H17.332V12H23.9987V16H26.6654V10.6667L18.6654 2.66669H7.9987ZM25.332 18.6667C21.6659 18.6667 18.6654 21.6672 18.6654 25.3334C18.6654 28.9995 21.6659 32 25.332 32C28.9981 32 31.9987 28.9995 31.9987 25.3334C31.9987 21.6672 28.9981 18.6667 25.332 18.6667ZM25.332 21.3334V25.3334H29.332C29.332 27.5583 27.557 29.3334 25.332 29.3334C23.1071 29.3334 21.332 27.5583 21.332 25.3334C21.332 23.1084 23.1071 21.3334 25.332 21.3334Z" fill="white"/>
</g>
<defs>
<clipPath id="clip0_2605_885">
<rect width="32" height="32" fill="white"/>
</clipPath>
</defs>
</svg>
