<svg width="924" height="240" viewBox="0 0 924 240" fill="none" xmlns="http://www.w3.org/2000/svg">
<path fill-rule="evenodd" clip-rule="evenodd" d="M65.7817 4.51516C66.6225 3.27669 67.4528 2.06067 68.2714 0.868164L71.5692 3.13191C70.7544 4.31899 69.9278 5.52932 69.0911 6.76187C68.4707 7.67574 67.2269 7.91364 66.313 7.29323C65.3992 6.67282 65.1613 5.42904 65.7817 4.51516ZM63.5734 11.3766C64.4941 11.9867 64.7459 13.2277 64.1358 14.1485C62.5389 16.5584 60.9169 19.0361 59.2785 21.5749C58.6796 22.503 57.4417 22.7699 56.5136 22.171C55.5855 21.5721 55.3186 20.3342 55.9175 19.4061C57.5652 16.8528 59.1961 14.3616 60.8014 11.939C61.4116 11.0182 62.6526 10.7664 63.5734 11.3766ZM53.8922 26.2906C54.8281 26.8774 55.1111 28.1117 54.5243 29.0475C52.977 31.5154 51.4229 34.0309 49.869 36.5888C49.2955 37.5328 48.0653 37.8331 47.1213 37.2596C46.1773 36.6861 45.8769 35.456 46.4504 34.5119C48.0145 31.9372 49.5786 29.4057 51.1353 26.9227C51.7221 25.9869 52.9564 25.7039 53.8922 26.2906ZM460.653 34.6355C457.79 34.4927 454.88 34.5359 451.926 34.7552C450.824 34.837 449.865 34.0103 449.783 32.9087C449.702 31.8072 450.528 30.8479 451.63 30.7662C454.739 30.5354 457.814 30.4889 460.852 30.6404C461.955 30.6955 462.805 31.6344 462.75 32.7376C462.695 33.8408 461.756 34.6905 460.653 34.6355ZM467.696 33.324C467.905 32.2395 468.954 31.5299 470.039 31.7392C473.069 32.3239 476.051 33.131 478.981 34.1739C480.022 34.5443 480.565 35.6882 480.195 36.7288C479.824 37.7694 478.68 38.3127 477.64 37.9423C474.904 36.9686 472.117 36.2141 469.281 35.6668C468.196 35.4575 467.487 34.4086 467.696 33.324ZM444.84 33.5525C445.037 34.6393 444.316 35.6801 443.229 35.8772C440.401 36.3899 437.538 37.0467 434.643 37.8393C433.577 38.131 432.477 37.5037 432.185 36.4383C431.894 35.373 432.521 34.2729 433.586 33.9813C436.586 33.16 439.564 32.4764 442.515 31.9413C443.602 31.7443 444.643 32.4656 444.84 33.5525ZM923.97 36.3476C923.7 37.8777 923.409 39.3945 923.098 40.8981C922.874 41.9797 921.815 42.675 920.734 42.451C919.652 42.2271 918.957 41.1687 919.181 40.0871C919.484 38.6225 919.767 37.1442 920.03 35.6525L923.97 36.3476ZM427.425 37.9408C427.793 38.9821 427.248 40.1249 426.206 40.4934C423.472 41.4609 420.714 42.5373 417.933 43.7155C416.916 44.1465 415.742 43.6714 415.311 42.6543C414.881 41.6373 415.356 40.4635 416.373 40.0325C419.222 38.8251 422.056 37.719 424.872 36.7225C425.913 36.3541 427.056 36.8995 427.425 37.9408ZM484.74 38.7512C485.263 37.7787 486.476 37.4147 487.449 37.9383C488.812 38.6721 490.16 39.4634 491.493 40.3137C492.787 41.1384 494.078 41.9577 495.367 42.7716C496.3 43.3614 496.579 44.5966 495.99 45.5305C495.4 46.4645 494.165 46.7435 493.231 46.1537C491.937 45.3366 490.641 44.5142 489.343 43.6864C488.091 42.8884 486.828 42.147 485.552 41.4603C484.58 40.9367 484.216 39.7238 484.74 38.7512ZM44.6114 41.4612C45.564 42.0203 45.883 43.2458 45.324 44.1984C43.8408 46.7258 42.3642 49.2872 40.9005 51.8781C40.3571 52.8398 39.1371 53.179 38.1754 52.6357C37.2137 52.0924 36.8745 50.8723 37.4178 49.9106C38.8928 47.2997 40.3804 44.7192 41.8742 42.1738C42.4332 41.2212 43.6587 40.9022 44.6114 41.4612ZM410.748 44.7337C411.23 45.7276 410.815 46.924 409.821 47.406C407.195 48.68 404.552 50.036 401.895 51.4681C400.922 51.9921 399.709 51.6287 399.185 50.6563C398.661 49.684 399.025 48.4709 399.997 47.9469C402.701 46.4897 405.394 45.1076 408.076 43.8071C409.069 43.325 410.266 43.7399 410.748 44.7337ZM919.565 47.3493C920.631 47.6388 921.261 48.7377 920.971 49.8036C920.161 52.7878 919.264 55.7138 918.281 58.5802C917.923 59.6251 916.786 60.1818 915.741 59.8237C914.696 59.4655 914.139 58.3281 914.497 57.2832C915.451 54.5002 916.323 51.6571 917.111 48.7551C917.401 47.6891 918.499 47.0597 919.565 47.3493ZM500.321 48.2389C500.902 47.2997 502.135 47.0097 503.074 47.5911C505.635 49.1763 508.187 50.7401 510.73 52.2828C511.674 52.8557 511.975 54.0856 511.402 55.03C510.829 55.9744 509.6 56.2756 508.655 55.7027C506.102 54.1538 503.539 52.5836 500.969 50.9921C500.03 50.4107 499.74 49.1781 500.321 48.2389ZM394.86 53.0938C395.419 54.0466 395.1 55.2719 394.147 55.8307C391.615 57.3155 389.073 58.8626 386.521 60.4671C385.586 61.055 384.351 60.7737 383.763 59.8386C383.175 58.9035 383.457 57.6688 384.392 57.0809C386.976 55.4559 389.554 53.8872 392.123 52.3803C393.076 51.8215 394.301 52.1409 394.86 53.0938ZM515.756 57.6431C516.32 56.6934 517.547 56.3807 518.496 56.9447C521.115 58.4994 523.723 60.0315 526.322 61.541C527.277 62.0958 527.602 63.3198 527.047 64.2749C526.492 65.2301 525.268 65.5546 524.313 64.9998C521.703 63.4838 519.083 61.9452 516.454 60.384C515.504 59.82 515.192 58.5929 515.756 57.6431ZM35.8043 56.9193C36.7756 57.4454 37.1365 58.6592 36.6105 59.6304C35.2093 62.2176 33.8264 64.8285 32.4675 67.4587C31.9605 68.44 30.754 68.8246 29.7727 68.3176C28.7913 67.8106 28.4068 66.6041 28.9138 65.6227C30.2851 62.9683 31.6802 60.3345 33.0932 57.7255C33.6192 56.7542 34.833 56.3933 35.8043 56.9193ZM913.934 64.5658C914.951 64.9949 915.429 66.1678 915 67.1856C913.799 70.0338 912.507 72.816 911.125 75.5304C910.624 76.5148 909.42 76.9066 908.436 76.4055C907.451 75.9044 907.06 74.7002 907.561 73.7158C908.898 71.088 910.15 68.3929 911.314 65.6318C911.743 64.614 912.916 64.1367 913.934 64.5658ZM531.363 66.7538C531.908 65.7933 533.129 65.4567 534.089 66.0021C536.744 67.5095 539.389 68.9932 542.023 70.4533C542.989 70.9888 543.338 72.2061 542.803 73.1722C542.267 74.1383 541.05 74.4873 540.084 73.9518C537.438 72.485 534.781 70.9946 532.114 69.4805C531.154 68.9351 530.817 67.7143 531.363 66.7538ZM27.5707 72.6905C28.5626 73.1764 28.9729 74.3745 28.487 75.3664C27.1887 78.0168 25.9202 80.6819 24.6869 83.3574C24.2246 84.3605 23.0365 84.7989 22.0334 84.3365C21.0303 83.8741 20.5919 82.6861 21.0543 81.6829C22.3013 78.9775 23.5834 76.2841 24.8948 73.6069C25.3807 72.6149 26.5787 72.2047 27.5707 72.6905ZM547.247 75.6054C547.772 74.6338 548.986 74.2719 549.958 74.7972C552.599 76.2252 555.23 77.6292 557.849 79.0094C558.826 79.5243 559.201 80.7339 558.686 81.7111C558.172 82.6883 556.962 83.0632 555.985 82.5483C553.352 81.1614 550.709 79.7506 548.055 78.3159C547.084 77.7906 546.722 76.5771 547.247 75.6054ZM563.26 84.088C563.764 83.105 564.969 82.7166 565.952 83.2204C568.641 84.5986 571.318 85.9514 573.984 87.279C574.973 87.7714 575.375 88.9722 574.882 89.9609C574.39 90.9496 573.189 91.3519 572.201 90.8594C569.521 89.5249 566.83 88.1652 564.128 86.7801C563.145 86.2763 562.756 85.071 563.26 84.088ZM20.0405 88.8081C21.0553 89.2441 21.5246 90.4202 21.0886 91.4351C19.9209 94.1533 18.7952 96.8774 17.7173 99.603C17.3111 100.63 16.1492 101.134 15.122 100.727C14.0948 100.321 13.5914 99.1593 13.9976 98.1321C15.0905 95.3683 16.2311 92.6082 17.4134 89.8562C17.8494 88.8413 19.0256 88.3721 20.0405 88.8081ZM579.417 92.1862C579.898 91.1917 581.093 90.7751 582.088 91.2557C584.832 92.582 587.563 93.8811 590.281 95.1534C591.282 95.6217 591.713 96.8123 591.245 97.8127C590.776 98.8131 589.586 99.2445 588.586 98.7762C585.852 97.4968 583.106 96.1905 580.347 94.8572C579.353 94.3765 578.936 93.1807 579.417 92.1862ZM595.749 99.8869C596.205 98.8807 597.39 98.4343 598.396 98.8899C601.19 100.155 603.969 101.391 606.734 102.599C607.747 103.041 608.209 104.22 607.767 105.232C607.325 106.244 606.146 106.707 605.133 106.265C602.352 105.05 599.556 103.806 596.746 102.534C595.74 102.078 595.293 100.893 595.749 99.8869ZM13.3943 105.307C14.4343 105.679 14.9756 106.824 14.6033 107.864C13.6046 110.654 12.6625 113.44 11.7831 116.219C11.4498 117.272 10.3259 117.855 9.27283 117.522C8.21975 117.188 7.63627 116.065 7.96958 115.011C8.86478 112.183 9.82288 109.35 10.8373 106.516C11.2096 105.476 12.3544 104.934 13.3943 105.307ZM612.381 107.211C612.809 106.192 613.982 105.714 615 106.142C617.801 107.32 620.587 108.469 623.357 109.587C624.381 110.001 624.876 111.167 624.462 112.191C624.048 113.215 622.883 113.71 621.859 113.296C619.071 112.17 616.268 111.015 613.449 109.83C612.431 109.401 611.953 108.229 612.381 107.211ZM629.183 114.057C629.581 113.027 630.739 112.515 631.769 112.913C634.583 114.001 637.38 115.058 640.16 116.084C641.197 116.467 641.727 117.617 641.344 118.653C640.961 119.689 639.811 120.219 638.775 119.837C635.975 118.803 633.159 117.739 630.327 116.644C629.296 116.245 628.784 115.087 629.183 114.057ZM646.164 120.389C646.529 119.346 647.671 118.798 648.713 119.164C651.546 120.157 654.361 121.119 657.158 122.048C658.206 122.397 658.773 123.529 658.425 124.577C658.077 125.625 656.945 126.192 655.896 125.844C653.078 124.908 650.242 123.939 647.389 122.938C646.346 122.572 645.798 121.431 646.164 120.389ZM7.89227 122.214C8.95856 122.502 9.58928 123.6 9.30101 124.666C8.52739 127.528 7.82836 130.375 7.21072 133.202C6.97497 134.281 5.90907 134.965 4.82995 134.729C3.75083 134.493 3.06714 133.427 3.30288 132.348C3.9353 129.453 4.65004 126.543 5.43963 123.622C5.7279 122.556 6.82598 121.925 7.89227 122.214ZM663.333 126.16C663.662 125.106 664.784 124.518 665.838 124.848C668.713 125.747 671.567 126.611 674.401 127.441C675.461 127.751 676.069 128.862 675.758 129.922C675.448 130.982 674.337 131.59 673.277 131.28C670.419 130.443 667.542 129.572 664.645 128.666C663.59 128.336 663.003 127.214 663.333 126.16ZM680.693 131.316C680.983 130.25 682.082 129.621 683.148 129.911C686.059 130.702 688.947 131.456 691.813 132.174C692.885 132.442 693.536 133.529 693.267 134.6C692.999 135.671 691.913 136.323 690.842 136.054C687.949 135.33 685.035 134.569 682.099 133.771C681.033 133.481 680.404 132.382 680.693 131.316ZM836.361 135.543C836.7 136.595 836.122 137.721 835.07 138.06C832.19 138.986 829.248 139.844 826.247 140.63C825.178 140.911 824.085 140.271 823.805 139.203C823.525 138.134 824.164 137.041 825.233 136.761C828.165 135.993 831.036 135.156 833.845 134.252C834.896 133.914 836.023 134.492 836.361 135.543ZM698.244 135.79C698.489 134.713 699.561 134.039 700.638 134.285C703.579 134.954 706.495 135.585 709.385 136.176C710.468 136.397 711.166 137.454 710.944 138.536C710.723 139.618 709.666 140.316 708.584 140.095C705.664 139.498 702.719 138.861 699.749 138.185C698.672 137.939 697.998 136.867 698.244 135.79ZM715.973 139.503C716.168 138.416 717.208 137.694 718.295 137.889C721.257 138.422 724.192 138.912 727.099 139.361C728.191 139.53 728.939 140.551 728.77 141.643C728.602 142.735 727.58 143.483 726.488 143.314C723.549 142.86 720.581 142.364 717.587 141.826C716.5 141.63 715.777 140.591 715.973 139.503ZM818.879 140.358C819.104 141.439 818.41 142.498 817.328 142.723C814.391 143.335 811.402 143.882 808.36 144.366C807.269 144.539 806.244 143.796 806.071 142.705C805.897 141.614 806.641 140.589 807.732 140.416C810.712 139.942 813.64 139.405 816.513 138.807C817.595 138.582 818.654 139.276 818.879 140.358ZM3.91523 139.539C5.00602 139.712 5.74923 140.738 5.57526 141.829C5.10783 144.759 4.73871 147.661 4.47563 150.528C4.37469 151.628 3.40118 152.438 2.30123 152.337C1.20128 152.236 0.391425 151.262 0.492363 150.162C0.764092 147.201 1.1447 144.211 1.62518 141.199C1.79916 140.108 2.82445 139.365 3.91523 139.539ZM733.858 142.361C733.997 141.265 734.998 140.49 736.094 140.629C739.087 141.01 742.049 141.345 744.979 141.635C746.079 141.744 746.881 142.723 746.773 143.822C746.664 144.922 745.685 145.724 744.585 145.616C741.617 145.322 738.619 144.982 735.589 144.597C734.494 144.458 733.718 143.456 733.858 142.361ZM801.041 143.388C801.166 144.485 800.377 145.476 799.28 145.601C796.286 145.941 793.245 146.222 790.159 146.443C789.057 146.522 788.1 145.693 788.021 144.591C787.942 143.49 788.771 142.532 789.873 142.453C792.905 142.236 795.89 141.96 798.828 141.626C799.926 141.501 800.917 142.29 801.041 143.388ZM751.86 144.251C751.936 143.149 752.891 142.317 753.993 142.393C757.019 142.601 760.008 142.76 762.962 142.869C764.066 142.91 764.927 143.838 764.886 144.942C764.846 146.045 763.918 146.907 762.814 146.866C759.817 146.755 756.785 146.594 753.718 146.383C752.616 146.307 751.785 145.353 751.86 144.251ZM783.014 144.851C783.051 145.955 782.186 146.88 781.082 146.916C778.066 147.016 775.01 147.061 771.914 147.051C770.81 147.048 769.917 146.149 769.921 145.045C769.924 143.94 770.823 143.048 771.927 143.051C774.976 143.061 777.984 143.017 780.949 142.919C782.053 142.882 782.978 143.747 783.014 144.851ZM2.03544 157.228C3.13991 157.243 4.02345 158.15 4.00888 159.255C3.96997 162.203 4.05853 165.105 4.28337 167.953C4.37031 169.054 3.54813 170.017 2.44699 170.104C1.34584 170.191 0.382714 169.369 0.295778 168.268C0.0606583 165.29 -0.0311934 162.265 0.0092238 159.202C0.0237968 158.097 0.930963 157.214 2.03544 157.228ZM3.07992 174.945C4.16544 174.741 5.211 175.455 5.41525 176.541C5.95412 179.405 6.65279 182.202 7.52139 184.924C7.85711 185.977 7.2762 187.102 6.22389 187.438C5.17157 187.773 4.04635 187.193 3.71062 186.14C2.78965 183.253 2.05178 180.297 1.48423 177.281C1.27998 176.195 1.9944 175.15 3.07992 174.945ZM8.01568 191.989C9.01288 191.514 10.2064 191.937 10.6814 192.934C11.9084 195.51 13.3181 198.006 14.9218 200.414C15.534 201.334 15.285 202.575 14.3656 203.188C13.4462 203.8 12.2046 203.551 11.5924 202.631C9.88103 200.061 8.37757 197.399 7.07018 194.654C6.59515 193.657 7.01847 192.464 8.01568 191.989ZM17.3645 207.058C18.1881 206.322 19.4524 206.393 20.1885 207.216C22.0524 209.302 24.0981 211.307 26.3358 213.226C27.1744 213.945 27.2714 215.207 26.5524 216.046C25.8335 216.884 24.5709 216.981 23.7323 216.262C21.363 214.231 19.1904 212.102 17.2061 209.882C16.47 209.058 16.5409 207.794 17.3645 207.058ZM30.4453 218.986C31.0596 218.068 32.3017 217.822 33.2197 218.436C34.4166 219.237 35.6562 220.019 36.9396 220.78C38.2475 221.556 39.5559 222.3 40.8643 223.014C41.834 223.543 42.1912 224.758 41.6622 225.727C41.1331 226.697 39.9182 227.054 38.9486 226.525C37.598 225.788 36.248 225.02 34.899 224.22C33.5546 223.423 32.2536 222.603 30.9951 221.761C30.0771 221.146 29.831 219.904 30.4453 218.986ZM46.2276 228.007C46.6841 227.001 47.8695 226.556 48.8753 227.012C51.6389 228.266 54.3995 229.393 57.1533 230.399C58.1908 230.779 58.7243 231.927 58.3451 232.965C57.9659 234.002 56.8174 234.536 55.78 234.156C52.9321 233.115 50.0782 231.951 47.2224 230.655C46.2165 230.198 45.7712 229.013 46.2276 228.007ZM63.2268 234.54C63.5253 233.476 64.6294 232.856 65.6928 233.154C68.6097 233.973 71.515 234.666 74.4043 235.243C75.4875 235.459 76.1902 236.512 75.974 237.596C75.7577 238.679 74.7043 239.382 73.6211 239.165C70.6337 238.569 67.629 237.852 64.612 237.006C63.5485 236.707 62.9283 235.603 63.2268 234.54Z" fill="white" fill-opacity="0.5"/>
</svg>
