<svg width="32" height="32" viewBox="0 0 32 32" fill="none" xmlns="http://www.w3.org/2000/svg">
<path d="M10.668 2.66663C8.47462 2.66663 6.66797 4.47328 6.66797 6.66663C6.66797 8.85997 8.47462 10.6666 10.668 10.6666C11.9162 10.6666 13.0257 10.07 13.7617 9.16142L14.3893 10.1562L12.3294 13.3333H4.0013C3.2653 13.3333 2.66797 13.9306 2.66797 14.6666V28C2.66797 28.736 3.2653 29.3333 4.0013 29.3333H28.0013C28.7373 29.3333 29.3346 28.736 29.3346 28V14.6666C29.3346 13.9306 28.7373 13.3333 28.0013 13.3333H18.4883L16.8034 16H25.457C25.6584 16.5653 26.1026 17.0096 26.668 17.2109V25.4557C26.1026 25.657 25.6584 26.1013 25.457 26.6666H6.54557C6.34424 26.1013 5.89997 25.657 5.33464 25.4557V17.2109C5.89997 17.0096 6.34424 16.5653 6.54557 16H10.6003L8.87109 18.6666H12.0013L18.22 9.13538C18.9556 10.0588 20.0745 10.6666 21.3346 10.6666C23.528 10.6666 25.3346 8.85997 25.3346 6.66663C25.3346 4.47328 23.528 2.66663 21.3346 2.66663C19.685 2.66663 18.2578 3.69036 17.6497 5.13017L15.9857 7.69267L14.4076 5.19267L14.3789 5.2109C13.7902 3.73011 12.3473 2.66663 10.668 2.66663ZM10.668 5.33329C11.4201 5.33329 12.0013 5.91445 12.0013 6.66663C12.0013 7.4188 11.4201 7.99996 10.668 7.99996C9.9158 7.99996 9.33463 7.4188 9.33463 6.66663C9.33463 5.91445 9.9158 5.33329 10.668 5.33329ZM21.3346 5.33329C22.0868 5.33329 22.668 5.91445 22.668 6.66663C22.668 7.4188 22.0868 7.99996 21.3346 7.99996C20.5825 7.99996 20.0013 7.4188 20.0013 6.66663C20.0013 5.91445 20.5825 5.33329 21.3346 5.33329ZM16.0508 17.3385L14.3164 20C13.8004 20.852 13.0453 21.324 12.0013 21.3333C12.0013 23.5426 13.792 25.3333 16.0013 25.3333C18.2106 25.3333 20.0013 23.5426 20.0013 21.3333C20.0013 19.1413 18.2361 17.3665 16.0508 17.3385ZM9.33463 20C8.98101 20 8.64187 20.1404 8.39183 20.3905C8.14178 20.6405 8.0013 20.9797 8.0013 21.3333C8.0013 21.6869 8.14178 22.0261 8.39183 22.2761C8.64187 22.5261 8.98101 22.6666 9.33463 22.6666C9.68826 22.6666 10.0274 22.5261 10.2774 22.2761C10.5275 22.0261 10.668 21.6869 10.668 21.3333C10.668 20.9797 10.5275 20.6405 10.2774 20.3905C10.0274 20.1404 9.68826 20 9.33463 20ZM22.668 20C22.3143 20 21.9752 20.1404 21.7252 20.3905C21.4751 20.6405 21.3346 20.9797 21.3346 21.3333C21.3346 21.6869 21.4751 22.0261 21.7252 22.2761C21.9752 22.5261 22.3143 22.6666 22.668 22.6666C23.0216 22.6666 23.3607 22.5261 23.6108 22.2761C23.8608 22.0261 24.0013 21.6869 24.0013 21.3333C24.0013 20.9797 23.8608 20.6405 23.6108 20.3905C23.3607 20.1404 23.0216 20 22.668 20Z" fill="white"/>
</svg>
