<svg width="32" height="32" viewBox="0 0 32 32" fill="none" xmlns="http://www.w3.org/2000/svg">
<path d="M5.33073 2.66663V9.33329H11.9974L9.91406 7.24996C11.6397 6.04714 13.728 5.33329 15.9974 5.33329C21.9049 5.33329 26.6641 10.0924 26.6641 16H29.3307C29.3307 8.65151 23.3458 2.66663 15.9974 2.66663C13.0017 2.66663 10.2262 3.65953 7.9974 5.33329L5.33073 2.66663ZM19.2005 10.0677L11.1953 20.7317L12.7943 21.9322L20.7995 11.2682L19.2005 10.0677ZM12.6641 10.6666C11.5601 10.6666 10.6641 11.5626 10.6641 12.6666C10.6641 13.7706 11.5601 14.6666 12.6641 14.6666C13.7681 14.6666 14.6641 13.7706 14.6641 12.6666C14.6641 11.5626 13.7681 10.6666 12.6641 10.6666ZM2.66406 16C2.66406 23.3484 8.64895 29.3333 15.9974 29.3333C18.9931 29.3333 21.7685 28.3404 23.9974 26.6666L26.6641 29.3333V22.6666H19.9974L22.0807 24.75C20.3551 25.9528 18.2668 26.6666 15.9974 26.6666C10.0898 26.6666 5.33073 21.9075 5.33073 16H2.66406ZM19.3307 17.3333C18.2267 17.3333 17.3307 18.2293 17.3307 19.3333C17.3307 20.4373 18.2267 21.3333 19.3307 21.3333C20.4347 21.3333 21.3307 20.4373 21.3307 19.3333C21.3307 18.2293 20.4347 17.3333 19.3307 17.3333Z" fill="#E62E59"/>
</svg>
