<svg width="23" height="20" viewBox="0 0 23 20" fill="none" xmlns="http://www.w3.org/2000/svg">
<path d="M22.4774 2.79422C21.6346 3.17534 20.7432 3.42855 19.8307 3.54603C20.7924 2.95422 21.5113 2.01701 21.8515 0.911987C20.951 1.46595 19.9658 1.85602 18.9386 2.06531C18.309 1.36724 17.4916 0.881817 16.5926 0.672148C15.6935 0.462479 14.7545 0.538264 13.8976 0.88965C13.0406 1.24104 12.3054 1.85177 11.7874 2.64245C11.2695 3.43313 10.9928 4.36718 10.9934 5.32318C10.9898 5.68815 11.0255 6.05238 11.0998 6.40913C9.27256 6.31605 7.48478 5.8239 5.85339 4.96486C4.222 4.10582 2.78373 2.89923 1.63261 1.42397C1.04128 2.47227 0.858092 3.71527 1.12046 4.89899C1.38283 6.08272 2.07096 7.11783 3.04426 7.79285C2.31623 7.77293 1.60352 7.57144 0.966399 7.20541V7.25796C0.967029 8.3596 1.33387 9.42731 2.00504 10.281C2.67622 11.1346 3.61064 11.722 4.6507 11.944C4.25786 12.0512 3.85303 12.1038 3.44684 12.1003C3.15485 12.1059 2.86313 12.0788 2.57674 12.0195C2.8731 12.9643 3.44421 13.7907 4.21159 14.3852C4.97897 14.9796 5.90496 15.3129 6.86232 15.3393C5.23785 16.6569 3.23488 17.3722 1.17289 17.3711C0.805681 17.3734 0.438707 17.3514 0.0742188 17.3051C2.17461 18.7092 4.62212 19.4519 7.12075 19.4433C8.84028 19.4551 10.545 19.1125 12.1358 18.4354C13.7267 17.7582 15.1722 16.7601 16.3883 15.4988C17.6044 14.2374 18.5669 12.7381 19.2201 11.0878C19.8732 9.43748 20.2039 7.66901 20.1931 5.88502C20.1931 5.67483 20.1866 5.47138 20.1762 5.26928C21.0819 4.59628 21.8618 3.75754 22.4774 2.79422Z" fill="#E62E59"/>
</svg>
