<svg width="40" height="40" viewBox="0 0 40 40" fill="none" xmlns="http://www.w3.org/2000/svg">
<g clip-path="url(#clip0_2542_125)">
<path d="M20.9375 34.6875L39.375 17.5L33.8125 10.7813C31.625 8.15625 28.2812 6.8125 24.9062 7.21875L14.2188 12.8125L10.625 20.625L20.9375 34.6875Z" fill="#FFEDF1"/>
<path d="M7.00159 16.4063L10.8766 10.3125C11.5016 9.3125 12.5641 8.65625 13.7516 8.5L24.3766 7.25C27.1891 6.90625 29.4391 9.5625 28.6266 12.2813L26.1266 20.5938H16.0328L20.9391 34.6875L7.56409 21.3125C6.25159 20 6.03284 17.9688 7.00159 16.4063Z" fill="white"/>
<path d="M25.4688 20.625L39.375 17.5L31.8125 8.375C31.1563 7.59375 29.875 7.8125 29.5625 8.78125L25.4688 20.625Z" fill="#FFEDF1"/>
<path d="M20.9375 34.6875L39.375 17.5L31.6563 8.1875C31.0625 7.46875 29.9375 7.6875 29.6562 8.5625L20.9375 34.6875Z" fill="#E62E59"/>
<path d="M38.9692 15.5313L32.4692 7.6875C31.9692 7.0625 31.1567 6.78125 30.3754 6.9375C29.5942 7.09375 28.9692 7.65625 28.6879 8.40625L24.9379 19.6875H16.6879L14.0317 12.125C13.8129 11.5 13.8754 10.8125 14.2504 10.25C14.5942 9.6875 15.1879 9.3125 15.8442 9.25L25.1254 8.125C25.6254 8.0625 26.0004 7.59375 25.9379 7.09375C25.8754 6.59375 25.4067 6.21875 24.9067 6.28125L15.6254 7.375C14.4067 7.53125 13.3129 8.21875 12.6567 9.25C12.0004 10.3125 11.8442 11.5625 12.2817 12.75L14.6254 19.5L8.93793 18.6875C8.03168 18.5625 7.15668 19 6.75043 19.8438C6.34418 20.6562 6.50043 21.625 7.15668 22.2812L20.2817 35.4062C20.4692 35.5938 20.6879 35.6875 20.9379 35.6875C21.0004 35.6875 21.0942 35.6875 21.1567 35.6562C21.4692 35.5937 21.7192 35.3437 21.8442 35.0312L26.3754 21.4062L36.6567 18.8125L28.6879 26.1875C28.3129 26.5312 28.2817 27.125 28.6567 27.5C29.0004 27.875 29.5942 27.9062 29.9692 27.5312L38.7192 19.375C39.8129 18.375 39.9067 16.6875 38.9692 15.5313ZM20.5317 32.9375L8.46918 20.9063C8.37543 20.8125 8.37543 20.7188 8.43793 20.625C8.46918 20.5312 8.56293 20.5 8.62543 20.5H8.65668L15.3129 21.4687L17.0317 26.4062C17.1567 26.7812 17.5317 27.0312 17.9067 27.0312C18.0004 27.0312 18.1254 27 18.2192 26.9688C18.7192 26.8125 18.9692 26.25 18.7817 25.7812L17.3442 21.5625H24.3129L20.5317 32.9375ZM27.0629 19.25L30.4692 9C30.5317 8.84375 30.6254 8.8125 30.7192 8.78125C30.7504 8.78125 30.7504 8.78125 30.7817 8.78125C30.8442 8.78125 30.9379 8.8125 31.0317 8.90625L37.4379 16.625L27.0629 19.25Z" fill="#041F4F"/>
<path d="M9.12369 5.9375C9.40494 6.09375 9.74869 6.125 10.0612 5.9375C10.4987 5.6875 10.6862 5.125 10.4362 4.65625L8.27994 0.843749C8.02994 0.406249 7.46744 0.218749 6.99869 0.468749C6.56119 0.718749 6.37369 1.28125 6.62369 1.75L8.74869 5.5625C8.84244 5.71875 8.96744 5.84375 9.12369 5.9375Z" fill="#041F4F"/>
<path d="M3.93572 10.6875C4.37322 10.9375 4.96697 10.7812 5.21697 10.3437C5.46697 9.90625 5.31072 9.3125 4.87322 9.0625L1.62322 7.1875C1.18572 6.9375 0.591968 7.09375 0.341968 7.53125C0.0919683 7.96875 0.248218 8.5625 0.685718 8.8125L3.93572 10.6875Z" fill="#041F4F"/>
<path d="M15.9375 1.25V2.5C15.9375 3.03125 16.3438 3.4375 16.875 3.4375C17.4062 3.4375 17.8125 3.03125 17.8125 2.5V1.25C17.8125 0.71875 17.4062 0.3125 16.875 0.3125C16.3438 0.3125 15.9375 0.71875 15.9375 1.25Z" fill="#041F4F"/>
<path d="M29.375 39.6875H10.625C10.0938 39.6875 9.6875 39.2812 9.6875 38.75C9.6875 38.2188 10.0938 37.8125 10.625 37.8125H29.375C29.9062 37.8125 30.3125 38.2188 30.3125 38.75C30.3125 39.2812 29.9062 39.6875 29.375 39.6875Z" fill="#041F4F"/>
<path d="M38.75 39.6875H35.625C35.0938 39.6875 34.6875 39.2812 34.6875 38.75C34.6875 38.2188 35.0938 37.8125 35.625 37.8125H38.75C39.2812 37.8125 39.6875 38.2188 39.6875 38.75C39.6875 39.2812 39.2812 39.6875 38.75 39.6875Z" fill="#041F4F"/>
</g>
<defs>
<clipPath id="clip0_2542_125">
<rect width="40" height="40" fill="white"/>
</clipPath>
</defs>
</svg>
