<svg width="32" height="33" viewBox="0 0 32 33" fill="none" xmlns="http://www.w3.org/2000/svg">
<path fill-rule="evenodd" clip-rule="evenodd" d="M24.5039 7.8186C22.2461 5.56079 19.2461 4.3147 16.0508 4.3147C9.46484 4.3147 4.10156 9.67407 4.10156 16.26C4.09766 18.3655 4.64844 20.4202 5.69531 22.2327L4 28.4241L10.3359 26.76C12.0781 27.7131 14.0469 28.2131 16.0469 28.217H16.0508C22.6367 28.217 27.9961 22.8577 28 16.2678C28 13.0764 26.7578 10.0764 24.5039 7.8186ZM16.0508 26.1975H16.0469C14.2656 26.1975 12.5156 25.717 10.9922 24.8147L10.6289 24.5999L6.86719 25.5842L7.87109 21.9202L7.63672 21.5452C6.64063 19.9631 6.11719 18.135 6.11719 16.26C6.11719 10.7874 10.5742 6.33423 16.0547 6.33423C18.707 6.33423 21.1992 7.36939 23.0742 9.24439C24.9492 11.1233 25.9805 13.6155 25.9805 16.2678C25.9805 21.7444 21.5234 26.1975 16.0508 26.1975ZM21.4961 18.76C21.1992 18.6116 19.7305 17.8889 19.457 17.7913C19.1836 17.6897 18.9844 17.6428 18.7852 17.9397C18.5859 18.2405 18.0156 18.9124 17.8398 19.1116C17.668 19.3069 17.4922 19.3342 17.1953 19.1858C16.8945 19.0374 15.9336 18.7209 14.793 17.7014C13.9062 16.9124 13.3047 15.9319 13.1328 15.635C12.957 15.3342 13.1133 15.1741 13.2617 15.0256C13.3984 14.8928 13.5625 14.678 13.7109 14.5022C13.8594 14.3303 13.9102 14.2053 14.0117 14.0061C14.1094 13.8069 14.0586 13.6311 13.9844 13.4827C13.9102 13.3342 13.3125 11.8616 13.0625 11.2639C12.8203 10.6819 12.5742 10.7639 12.3906 10.7522C12.2188 10.7444 12.0195 10.7444 11.8203 10.7444C11.6211 10.7444 11.2969 10.8186 11.0234 11.1194C10.75 11.4163 9.98047 12.1389 9.98047 13.6077C9.98047 15.0764 11.0508 16.4983 11.1992 16.6975C11.3477 16.8928 13.3047 19.9084 16.3008 21.2014C17.0117 21.51 17.5664 21.6936 18 21.8303C18.7148 22.0569 19.3672 22.0256 19.8828 21.9514C20.457 21.8655 21.6484 21.2288 21.8984 20.5295C22.1445 19.8342 22.1445 19.2366 22.0703 19.1116C21.9961 18.9866 21.7969 18.9124 21.4961 18.76Z" fill="#E62E59"/>
</svg>
