<svg width="26" height="18" viewBox="0 0 26 18" fill="none" xmlns="http://www.w3.org/2000/svg">
<path d="M0.62522 14.8998C0.769896 15.4041 1.04694 15.8643 1.42989 16.2366C1.81284 16.6089 2.28891 16.8808 2.81264 17.0264C5.38926 17.7014 19.878 17.7027 22.4994 17.0264C23.0226 16.8799 23.4982 16.6077 23.881 16.2355C24.2638 15.8634 24.5412 15.4036 24.6868 14.8998C25.3985 10.9291 25.388 6.87018 24.6556 2.90291L24.6868 3.0993C24.5419 2.59532 24.2648 2.13536 23.8819 1.76331C23.4989 1.39126 23.023 1.11954 22.4994 0.974086C19.9499 0.310769 5.4313 0.284757 2.81264 0.974086C2.28951 1.12078 1.81406 1.39307 1.43129 1.76519C1.04851 2.1373 0.771073 2.59694 0.62522 3.1006C-0.125073 7.00077 -0.125073 10.9997 0.62522 14.8998ZM10.1411 12.6667V5.34287L16.7033 9.01062L10.1411 12.6667Z" fill="#E62E59"/>
</svg>
